<?xml version="1.0" standalone="no"?>
<!DOCTYPE svg PUBLIC "-//W3C//DTD SVG 20010904//EN"
 "http://www.w3.org/TR/2001/REC-SVG-20010904/DTD/svg10.dtd">
<svg version="1.0" xmlns="http://www.w3.org/2000/svg"
 width="512.000000pt" height="512.000000pt" viewBox="0 0 512.000000 512.000000"
 preserveAspectRatio="xMidYMid meet">
<metadata>
Created by potrace 1.14, written by Peter Selinger 2001-2017
</metadata>
<g transform="translate(0.000000,512.000000) scale(0.100000,-0.100000)"
fill="#000000" stroke="none">
<path d="M3337 5005 c6 -18 5 -18 -10 -6 -10 8 -17 9 -17 3 0 -6 -8 -11 -17
-11 -10 0 -29 -2 -43 -4 -14 -3 -29 -5 -33 -6 -5 0 -5 -6 -1 -13 5 -8 2 -9 -9
-5 -10 4 -17 2 -17 -4 0 -6 -7 -8 -16 -5 -8 3 -12 2 -9 -4 3 -6 -2 -13 -11
-17 -10 -3 -25 -13 -33 -20 -39 -35 -77 -63 -84 -63 -5 0 -5 -4 -2 -10 6 -9
-8 -14 -28 -11 -5 1 -6 -3 -2 -8 3 -6 -3 -16 -15 -23 -11 -7 -20 -18 -20 -25
0 -6 -5 -15 -12 -19 -7 -5 -8 -3 -3 6 6 9 4 11 -4 6 -7 -5 -10 -14 -7 -21 3
-8 -4 -17 -15 -20 -10 -4 -19 -13 -19 -20 0 -8 -6 -18 -14 -22 -8 -4 -15 -12
-17 -18 -5 -25 -12 -34 -23 -28 -6 4 -4 -2 4 -13 8 -10 11 -16 6 -12 -11 9
-36 -14 -28 -26 3 -5 -3 -6 -13 -2 -15 5 -16 4 -5 -9 8 -10 9 -15 1 -15 -6 0
-10 -6 -9 -12 2 -7 -2 -12 -8 -11 -5 1 -9 -12 -8 -28 1 -16 -2 -26 -7 -23 -8
4 -14 -17 -10 -38 0 -5 -4 -8 -10 -8 -5 0 -7 -4 -4 -10 3 -5 2 -10 -4 -10 -6
0 -8 -6 -5 -14 3 -8 1 -17 -5 -20 -6 -4 -7 -14 -4 -23 4 -11 3 -14 -5 -9 -8 5
-11 -3 -9 -26 2 -21 -3 -38 -13 -45 -10 -9 -11 -12 -2 -13 10 0 9 -6 -2 -28
-10 -20 -11 -33 -4 -46 7 -13 7 -17 0 -12 -5 3 -12 -1 -15 -9 -4 -10 -1 -12
11 -9 14 5 13 3 -2 -10 -11 -9 -14 -16 -8 -16 9 0 10 -5 4 -17 -5 -10 -6 -27
-2 -38 4 -11 4 -30 -1 -42 -6 -15 -5 -23 2 -23 8 0 7 -5 -1 -15 -9 -11 -9 -15
-1 -15 11 0 10 -7 -3 -68 -3 -12 -1 -20 3 -17 5 3 12 -2 15 -11 3 -8 2 -12 -3
-9 -5 3 -12 1 -16 -5 -3 -5 2 -10 12 -10 14 0 15 -2 4 -9 -9 -6 -10 -11 -3
-15 6 -4 9 -13 5 -21 -3 -9 1 -15 8 -16 8 0 5 -4 -6 -9 -11 -5 -14 -9 -7 -9 7
-1 10 -5 7 -11 -3 -5 0 -10 7 -10 9 0 9 -3 -2 -10 -13 -8 -12 -10 4 -10 17 0
18 -2 5 -12 -8 -7 -12 -12 -10 -11 11 7 28 -33 20 -48 -10 -20 -2 -29 19 -22
12 4 11 1 -3 -10 -18 -15 -19 -16 -2 -17 12 0 16 -4 10 -12 -11 -19 -13 -39
-2 -32 5 3 9 -2 9 -11 0 -9 7 -23 15 -32 9 -8 14 -20 12 -26 -2 -6 3 -19 12
-29 8 -9 16 -27 18 -40 2 -13 8 -24 13 -26 6 -2 10 -8 10 -13 0 -6 -4 -7 -10
-4 -5 3 -10 1 -10 -4 0 -6 9 -11 20 -11 12 0 20 -7 20 -16 0 -20 25 -45 36
-36 5 4 2 -2 -6 -12 -10 -13 -10 -17 -2 -12 7 4 12 1 12 -8 0 -9 9 -16 20 -16
11 0 20 -5 20 -11 0 -5 -4 -8 -8 -5 -5 3 -9 -1 -9 -9 0 -12 4 -12 21 2 12 10
18 14 14 9 -4 -5 3 -23 15 -40 12 -17 20 -32 19 -34 -2 -2 -1 -7 3 -10 4 -4 5
-2 3 3 -2 6 2 10 7 10 6 0 9 -2 8 -5 -1 -3 8 -7 19 -7 19 -2 19 -1 3 11 -14
10 -15 15 -5 21 9 5 11 4 6 -3 -7 -11 6 -17 27 -13 5 1 6 -3 2 -9 -3 -5 -2
-10 4 -10 5 0 11 5 13 12 3 7 7 5 11 -6 4 -9 3 -15 -1 -12 -4 2 -14 0 -22 -5
-11 -7 -9 -8 8 -6 13 2 28 10 33 18 7 12 9 12 9 -2 0 -8 -5 -20 -10 -25 -7 -7
-6 -11 4 -11 8 0 13 4 10 8 -2 4 4 13 15 18 16 9 21 7 30 -17 8 -20 10 -21 7
-5 -2 13 1 26 6 30 7 3 8 1 4 -5 -4 -7 -2 -12 3 -12 6 0 11 -6 11 -14 0 -20
17 -29 26 -15 4 8 3 9 -4 5 -7 -4 -12 -1 -12 9 0 10 5 14 13 10 6 -4 3 1 -8
11 -18 15 -18 16 -2 10 10 -3 21 -6 23 -6 2 0 4 -6 4 -14 0 -8 7 -16 15 -20
13 -5 14 -2 4 17 -6 12 -8 19 -4 15 5 -4 15 -2 24 5 14 11 14 10 2 -5 -8 -11
-9 -18 -3 -18 6 0 9 -8 6 -17 -5 -15 -4 -15 4 -3 6 8 9 17 6 21 -2 4 0 10 5
13 5 4 12 2 15 -3 10 -16 45 -1 39 17 -4 13 -3 14 5 4 11 -17 22 -15 45 5 9 9
17 12 17 7 0 -5 7 -1 14 9 12 16 14 16 20 2 3 -9 2 -13 -4 -10 -6 3 -10 4 -10
1 0 -3 9 -10 20 -16 18 -10 19 -8 10 14 -6 16 -6 27 0 31 6 4 10 3 10 -2 1 -4
7 3 15 17 8 14 14 19 15 12 0 -7 4 -11 10 -7 5 3 8 11 6 18 -1 7 -1 9 1 4 3
-4 14 3 25 15 11 13 17 18 14 11 -7 -13 39 -12 52 2 4 4 1 5 -5 1 -7 -4 -13
-2 -13 4 0 6 -4 8 -10 5 -5 -3 -10 -1 -10 6 0 6 8 9 19 6 12 -3 22 1 25 10 3
8 11 11 16 8 6 -4 9 -3 8 2 -1 4 4 19 11 32 7 13 8 21 2 17 -7 -5 -8 -1 -4 10
5 15 8 14 22 -5 16 -21 17 -21 17 -2 0 11 -2 18 -4 16 -2 -2 -10 1 -16 7 -10
9 -8 16 6 30 22 22 25 22 25 3 0 -8 -5 -11 -11 -8 -6 3 -6 0 1 -7 9 -10 15
-10 28 4 10 10 12 16 4 16 -8 0 -8 4 2 16 7 9 9 18 3 22 -5 4 -10 13 -12 21
-3 12 -1 12 13 1 24 -20 41 2 19 24 -15 16 -15 18 4 39 13 14 19 32 16 52 -2
22 -1 26 6 14 5 -9 8 -25 6 -36 -3 -12 1 -20 9 -20 8 0 11 5 8 10 -8 14 -10
66 -2 61 4 -2 10 3 13 12 10 25 7 27 -11 13 -12 -9 -10 -5 4 14 12 15 20 36
18 47 -2 10 3 24 11 30 7 7 11 16 8 21 -3 5 0 9 5 9 14 0 14 -13 0 -27 -7 -7
-6 -12 5 -16 10 -4 13 -1 9 9 -3 7 0 14 7 14 10 0 10 3 1 14 -10 11 -8 16 5
24 20 11 28 68 12 79 -8 4 -9 0 -5 -11 4 -10 3 -15 -3 -11 -6 3 -10 1 -10 -4
0 -6 5 -11 10 -11 6 0 3 -11 -6 -25 -9 -14 -21 -25 -28 -25 -7 0 -7 3 1 8 7 5
15 22 17 40 4 40 26 69 37 50 5 -8 8 -5 6 9 -1 22 -8 21 -42 -6 -16 -13 -16
-11 2 10 18 20 20 28 10 38 -7 8 1 7 23 -3 34 -17 34 -17 14 1 -19 17 -21 32
-10 81 3 12 1 22 -3 22 -4 0 -8 6 -8 14 0 8 6 12 14 9 7 -3 10 -9 7 -14 -3 -5
0 -9 5 -9 6 0 9 10 7 23 -3 12 -5 37 -5 54 -1 18 -4 32 -9 30 -4 -1 -7 3 -8 8
0 6 9 9 20 7 20 -2 20 -2 -1 11 l-23 12 21 13 c16 10 18 16 9 27 -8 10 -8 15
2 19 9 4 10 8 2 11 -6 3 -20 12 -30 20 -18 13 -17 14 11 10 l30 -5 -25 14
c-14 8 -27 13 -31 11 -3 -2 -6 2 -6 10 0 11 4 12 14 3 11 -8 12 -7 7 6 -3 9
-11 16 -17 16 -6 0 -7 3 -3 8 4 4 19 -6 33 -23 21 -26 23 -26 12 -5 -7 14 -12
29 -11 33 1 5 -2 5 -8 2 -6 -4 -11 -1 -9 6 4 34 0 42 -16 29 -13 -11 -14 -10
-9 4 3 9 11 16 18 16 7 0 6 4 -2 9 -8 4 -13 11 -13 15 3 20 0 26 -9 21 -5 -3
-10 -1 -10 4 0 6 5 11 10 11 6 0 10 7 10 15 0 8 -5 15 -11 15 -5 0 -7 -4 -4
-10 3 -5 1 -10 -5 -10 -7 0 -9 7 -6 15 3 9 -1 18 -10 22 -12 4 -13 8 -3 14 8
4 18 1 26 -9 11 -14 11 -12 1 12 -7 15 -14 23 -16 17 -2 -6 -11 -11 -20 -10
-11 0 -12 2 -4 6 6 2 12 12 12 20 0 12 -3 13 -13 5 -10 -9 -13 -5 -11 18 2 27
-5 35 -28 31 -5 0 -8 3 -8 9 0 5 5 10 10 10 6 0 10 5 10 11 0 5 -4 7 -10 4 -5
-3 -10 -1 -10 5 0 6 -5 8 -12 4 -7 -4 -8 -3 -4 4 4 6 14 8 23 5 9 -4 6 3 -8
19 -13 13 -27 23 -31 21 -5 -2 -8 3 -8 12 0 10 5 13 12 9 7 -4 8 -3 4 4 -4 6
-13 9 -21 5 -18 -6 -20 13 -2 21 6 3 2 3 -10 0 -18 -4 -23 -1 -23 15 0 11 -9
22 -21 26 -17 6 -19 9 -8 16 8 5 17 3 22 -4 6 -8 7 -8 4 3 -2 8 -10 15 -18 16
-33 2 -39 5 -39 15 0 5 5 7 12 3 7 -4 8 -3 4 4 -4 6 -13 9 -21 5 -8 -3 -15 0
-15 7 0 6 -4 8 -10 5 -13 -8 -13 1 1 28 9 19 7 19 -11 -3 -11 -14 -19 -20 -18
-15 2 6 -8 22 -21 35 -13 14 -21 19 -17 13 4 -7 2 -13 -3 -13 -6 0 -11 5 -11
11 0 6 -7 9 -15 5 -10 -3 -15 1 -15 12 0 14 -2 14 -9 3 -7 -11 -10 -10 -14 5
-4 18 -5 18 -6 1 -1 -17 -2 -17 -17 -2 -12 12 -19 13 -30 4 -11 -9 -15 -8 -20
5 -3 9 -10 16 -16 16 -5 0 -6 -5 -2 -11 10 -16 -39 -7 -54 11 -10 13 -11 12
-5 -5z m438 -285 c3 -5 1 -10 -4 -10 -6 0 -11 5 -11 10 0 6 2 10 4 10 3 0 8
-4 11 -10z m112 -256 c-3 -3 -12 -4 -19 -1 -8 3 -5 6 6 6 11 1 17 -2 13 -5z
m18 -64 c-3 -5 -12 -10 -18 -10 -7 0 -6 4 3 10 19 12 23 12 15 0z m25 -120 c0
-5 -4 -10 -10 -10 -5 0 -10 5 -10 10 0 6 5 10 10 10 6 0 10 -4 10 -10z m5 -29
c7 -12 -12 -24 -25 -16 -11 7 -4 25 10 25 5 0 11 -4 15 -9z m-170 -721 c3 -5
1 -10 -4 -10 -6 0 -11 5 -11 10 0 6 2 10 4 10 3 0 8 -4 11 -10z m-25 -44 c0
-11 -19 -15 -25 -6 -3 5 1 10 9 10 9 0 16 -2 16 -4z m-92 -114 c13 9 12 7 -1
-9 -11 -12 -25 -19 -32 -16 -11 4 -12 8 -2 18 7 7 14 9 15 4 2 -6 11 -4 20 3z
m-645 -132 c3 -11 1 -18 -4 -14 -5 3 -9 12 -9 20 0 20 7 17 13 -6z"/>
<path d="M1820 4915 c13 -17 13 -18 -1 -13 -9 4 -22 1 -29 -5 -10 -9 -12 -8
-7 6 6 16 5 16 -20 0 -15 -10 -24 -13 -21 -8 4 6 -2 12 -13 12 -11 1 -22 -4
-25 -12 -3 -8 -12 -11 -20 -8 -8 3 -21 0 -29 -7 -8 -7 -24 -10 -34 -7 -14 3
-18 1 -14 -9 3 -8 0 -14 -6 -14 -7 0 -22 -10 -35 -22 -13 -13 -32 -31 -42 -40
-22 -19 -30 -29 -71 -85 -17 -23 -34 -39 -38 -35 -5 4 -5 1 -1 -5 9 -16 -12
-56 -24 -48 -6 4 -7 -1 -3 -11 4 -12 3 -15 -5 -10 -8 4 -10 2 -6 -7 3 -8 -2
-17 -10 -20 -9 -4 -13 -13 -10 -22 4 -9 1 -15 -7 -15 -11 0 -11 -3 1 -10 8 -5
10 -10 4 -10 -7 0 -19 -12 -29 -26 -11 -18 -12 -24 -4 -18 11 6 12 5 3 -7 -5
-8 -10 -21 -9 -29 0 -8 -6 -22 -14 -30 -10 -10 -11 -15 -2 -18 8 -3 4 -10 -9
-19 -16 -11 -19 -18 -11 -26 13 -13 15 -31 3 -23 -4 2 -8 -5 -9 -17 -2 -65 -9
-115 -15 -110 -5 2 -8 -1 -8 -6 0 -6 5 -11 11 -11 8 0 8 -4 0 -13 -8 -10 -7
-17 2 -27 9 -10 9 -11 0 -6 -8 5 -13 1 -13 -9 0 -9 5 -13 10 -10 15 9 12 -2
-6 -19 -11 -12 -12 -16 -2 -16 7 0 13 -11 13 -25 0 -18 -4 -24 -15 -20 -10 3
-9 0 3 -9 12 -9 14 -16 8 -21 -6 -3 -11 -12 -11 -18 0 -7 4 -6 11 3 9 12 10
11 6 -7 -3 -14 0 -23 6 -24 7 0 3 -4 -8 -9 -16 -7 -16 -9 -4 -9 9 -1 20 -8 23
-17 6 -15 4 -15 -11 -3 -16 13 -16 12 1 -15 10 -16 13 -25 6 -21 -8 5 -9 2 -1
-11 13 -25 23 -54 28 -79 2 -16 1 -17 -6 -5 -5 8 -7 18 -4 24 3 5 1 6 -5 2
-12 -7 -1 -39 17 -50 5 -4 7 -15 4 -26 -3 -11 -1 -20 5 -20 5 0 12 -9 15 -20
3 -11 1 -18 -4 -14 -5 3 -6 -2 -3 -10 3 -9 10 -13 15 -10 5 3 9 -7 9 -21 0
-16 4 -24 11 -19 7 4 7 -2 -1 -17 -7 -13 -9 -21 -5 -17 4 4 16 -2 26 -14 21
-23 24 -32 9 -23 -5 3 -10 1 -10 -5 0 -6 7 -13 16 -17 12 -4 12 -8 4 -13 -9
-5 -6 -10 9 -15 11 -3 21 -11 21 -16 0 -6 -4 -7 -10 -4 -5 3 -10 2 -10 -2 0
-5 9 -14 20 -21 11 -7 20 -21 20 -33 0 -11 4 -18 9 -15 5 3 12 -1 15 -10 3 -8
2 -12 -4 -9 -6 3 -10 1 -10 -4 0 -6 7 -11 15 -11 8 0 15 -8 15 -19 0 -10 8
-25 18 -32 15 -12 16 -12 7 1 -5 9 -2 8 7 -3 9 -10 14 -25 11 -34 -5 -12 -3
-14 7 -8 10 6 12 4 6 -10 -6 -16 -4 -16 11 -4 11 9 14 10 9 2 -4 -8 -1 -13 8
-13 9 0 15 -3 15 -7 -1 -5 -1 -15 0 -23 1 -13 2 -13 11 0 8 12 10 11 10 -7 0
-13 9 -32 20 -43 11 -11 20 -15 20 -10 0 6 5 10 11 10 6 0 8 -9 4 -22 -7 -23
-7 -23 9 -3 9 12 15 15 16 7 0 -8 5 -10 13 -6 6 4 4 -2 -6 -14 -19 -21 -7 -26
22 -8 10 7 12 6 6 -4 -6 -10 -3 -12 14 -7 17 4 25 0 33 -19 8 -17 14 -21 19
-13 5 9 11 8 23 -3 8 -9 13 -18 11 -22 -3 -3 1 -2 7 4 7 5 20 10 30 10 10 0
18 6 18 13 0 8 3 9 8 1 4 -6 18 -17 32 -24 24 -13 25 -12 7 7 -14 16 -14 20
-2 20 8 0 12 -4 9 -9 -3 -4 -2 -8 3 -9 4 -1 20 -2 34 -3 14 -2 31 -6 37 -10 8
-5 10 -2 6 8 -3 9 -11 13 -18 9 -6 -3 -5 0 2 8 11 12 15 11 23 -3 13 -24 29
-23 29 1 0 11 5 23 12 27 7 5 9 2 6 -7 -4 -9 4 -19 19 -26 24 -12 25 -11 9 6
-15 17 -15 19 1 32 16 13 17 12 5 -2 -10 -14 -10 -18 3 -23 10 -4 14 -2 9 5
-4 7 -1 10 7 7 8 -3 13 -12 13 -21 -1 -9 3 -14 8 -11 5 3 7 12 4 19 -2 7 2 16
10 19 8 3 14 0 14 -6 0 -6 3 -8 6 -5 4 4 1 13 -6 22 -10 12 -10 15 4 15 9 0
16 -8 17 -17 0 -12 2 -13 6 -5 3 7 -1 20 -9 29 -12 15 -11 15 8 5 16 -9 21 -8
21 3 0 8 -4 12 -8 9 -4 -2 -11 1 -15 7 -4 7 -3 9 4 5 6 -3 14 -2 17 4 5 8 11
7 21 -1 11 -9 14 -7 14 10 0 15 -4 20 -12 15 -8 -4 -10 -3 -5 2 5 5 14 9 20 9
7 0 11 9 10 19 -1 13 2 15 10 7 7 -7 7 -14 -2 -24 -9 -12 -8 -16 4 -20 8 -4
14 -3 14 1 -1 4 -1 20 0 36 1 20 5 27 16 23 8 -4 17 -2 20 4 4 5 11 7 16 4 5
-4 9 -1 9 5 0 7 -7 10 -15 6 -11 -4 -14 0 -11 17 3 12 5 23 7 25 2 3 6 19 8
32 1 7 7 6 15 -2 12 -11 12 -14 0 -21 -8 -5 -11 -13 -8 -19 5 -7 2 -8 -6 -3
-9 5 -11 4 -6 -4 4 -6 12 -9 17 -5 5 3 7 9 4 14 -3 4 2 11 11 14 8 3 12 11 8
17 -4 7 -8 22 -10 35 -1 17 2 22 17 19 10 -2 22 1 25 7 4 6 3 8 -2 5 -6 -3
-16 -2 -24 4 -11 6 -8 9 12 9 15 0 30 5 34 12 5 7 2 9 -9 5 -8 -3 -18 0 -21 8
-3 9 0 12 8 9 7 -3 19 3 27 13 13 16 12 17 -3 4 -13 -9 -18 -10 -18 -2 0 7 -5
9 -12 5 -8 -4 -10 -3 -5 2 5 5 14 9 20 9 5 0 12 6 15 14 3 9 0 11 -9 6 -8 -5
-11 -5 -7 0 4 4 2 15 -4 24 -10 13 -10 14 2 4 26 -24 37 -14 39 37 1 35 -3 50
-11 50 -7 0 -5 5 6 11 13 8 15 13 6 19 -8 5 -7 9 5 13 9 4 14 3 11 -1 -3 -5 1
-9 8 -9 7 0 13 6 13 13 0 7 -4 11 -9 8 -4 -3 -8 -1 -8 5 0 6 -6 9 -12 7 -7 -1
-10 -1 -6 1 4 2 4 12 1 21 -5 14 -3 13 9 -2 11 -13 17 -16 22 -7 4 6 12 8 18
5 7 -4 8 -2 4 5 -4 6 -12 9 -17 6 -5 -4 -12 1 -15 9 -3 9 -11 13 -18 9 -6 -3
-6 -1 2 8 14 15 17 33 4 25 -5 -3 -9 1 -9 8 0 7 6 13 13 13 7 0 11 -4 8 -8 -2
-4 0 -10 5 -13 5 -4 12 -2 15 3 4 5 2 12 -4 16 -5 3 -10 11 -10 16 0 6 4 8 9
5 4 -3 8 14 7 37 -1 31 3 41 13 39 12 -3 12 -1 1 14 -8 9 -15 33 -15 53 -1 22
-5 35 -13 34 -7 -2 -12 2 -12 7 0 6 5 10 10 10 6 0 10 5 10 11 0 5 -4 8 -8 5
-4 -2 -9 4 -9 15 -1 10 3 19 8 19 6 0 8 -4 5 -8 -3 -5 0 -9 7 -9 7 0 13 8 13
18 0 9 -6 15 -13 12 -6 -3 -20 0 -30 6 -12 7 -13 11 -4 11 8 0 11 6 7 16 -3 8
-2 13 3 10 5 -3 12 1 15 10 8 21 8 24 -5 24 -5 0 -7 -4 -4 -10 3 -5 1 -10 -4
-10 -15 0 -14 13 2 29 10 10 9 11 -3 6 -17 -6 -26 30 -9 40 12 8 12 25 -2 25
-5 0 -7 -6 -3 -12 4 -7 -1 -5 -12 4 -15 14 -16 20 -5 30 10 11 11 10 8 -2 -2
-8 -2 -12 0 -7 3 4 10 4 16 0 8 -5 8 -2 0 8 -7 9 -11 25 -8 37 3 15 0 19 -12
15 -11 -4 -11 -8 -3 -13 9 -5 9 -9 1 -14 -11 -7 -15 4 -12 35 1 9 -5 19 -13
22 -9 4 -13 13 -10 22 3 8 11 12 16 9 6 -4 5 -10 -3 -15 -8 -5 -9 -9 -4 -9 6
0 16 4 23 9 11 6 10 10 -5 16 -10 5 -22 7 -27 6 -14 -3 -24 19 -19 39 3 12 11
17 21 13 18 -7 17 -5 -12 17 -11 8 -17 10 -13 4 3 -6 0 -11 -8 -11 -8 0 -12 4
-9 8 7 12 -18 59 -29 52 -6 -3 -7 -1 -3 5 4 7 2 12 -5 12 -7 0 -10 3 -6 6 3 3
15 0 26 -8 12 -8 18 -18 14 -22 -4 -4 1 -4 11 0 18 7 18 7 0 17 -11 6 -25 17
-32 24 -8 7 -17 11 -21 9 -4 -3 -8 5 -8 17 -1 12 3 25 10 29 9 6 9 8 0 8 -7 0
-17 -8 -23 -17 -10 -16 -10 -16 -8 2 2 12 -2 19 -10 17 -6 -1 -11 1 -11 5 3
19 -2 34 -9 29 -4 -2 -9 5 -9 16 -1 12 -7 26 -13 32 -8 8 -9 6 -4 -9 4 -12 4
-16 -2 -10 -5 5 -13 13 -19 17 -5 4 2 12 15 18 l25 10 -27 -5 c-22 -4 -30 0
-44 24 -10 17 -20 28 -24 26 -3 -2 -12 5 -19 17 -10 16 -10 19 1 12 10 -6 10
-4 -1 9 -7 9 -19 17 -25 16 -7 0 -6 -2 2 -6 6 -2 10 -8 7 -13 -6 -10 -74 52
-68 63 4 6 -27 11 -52 8 -5 -1 -1 6 10 15 20 16 20 16 -4 9 -16 -5 -21 -4 -17
4 4 6 4 11 -1 10 -29 -5 -45 2 -39 19 5 14 4 14 -9 -2 -14 -18 -15 -19 -15 -2
0 12 -5 16 -15 12 -8 -3 -15 -1 -15 4 0 6 -5 10 -11 10 -5 0 -8 -4 -5 -9 9
-15 -18 -7 -50 14 -28 18 -28 18 -14 0z m-90 -19 c0 -3 -4 -8 -10 -11 -5 -3
-10 -1 -10 4 0 6 5 11 10 11 6 0 10 -2 10 -4z m757 -958 c0 -15 -3 -28 -7 -28
-5 0 -7 8 -6 18 2 9 -3 22 -11 27 -12 9 -11 11 4 11 13 0 19 -8 20 -28z m5
-53 c0 -5 -5 -10 -11 -11 -8 -2 -7 -1 0 3 8 4 7 8 -2 15 -11 8 -11 9 -1 6 8
-2 14 -8 14 -13z m-15 -32 c-4 -3 -2 -12 5 -20 9 -11 8 -17 -4 -29 -13 -13
-14 -11 -12 18 3 39 2 38 11 38 3 0 3 -3 0 -7z m-40 -312 c0 -11 -5 -18 -9
-15 -4 3 -5 11 -1 19 7 21 12 19 10 -4z m-787 -363 c0 -6 -6 -5 -15 2 -8 7
-15 14 -15 16 0 2 7 1 15 -2 8 -4 15 -11 15 -16z m492 -57 c8 11 9 11 6 1 -4
-16 -22 -18 -24 -2 -2 7 -1 6 3 -1 4 -8 8 -7 15 2z m-332 -15 c0 -2 -7 -7 -16
-10 -8 -3 -12 -2 -9 4 6 10 25 14 25 6z m178 -16 c-7 -10 -14 -17 -17 -15 -4
4 18 35 25 35 2 0 -1 -9 -8 -20z m-138 -6 c0 -8 -19 -13 -24 -6 -3 5 1 9 9 9
8 0 15 -2 15 -3z"/>
<path d="M3730 4820 c-9 -6 -10 -10 -3 -10 6 0 15 5 18 10 8 12 4 12 -15 0z"/>
<path d="M2090 4800 c8 -5 20 -10 25 -10 6 0 3 5 -5 10 -8 5 -19 10 -25 10 -5
0 -3 -5 5 -10z"/>
<path d="M2275 4631 c-3 -5 -2 -12 3 -15 5 -3 9 1 9 9 0 17 -3 19 -12 6z"/>
<path d="M2280 4596 c0 -2 7 -7 16 -10 8 -3 12 -2 9 4 -6 10 -25 14 -25 6z"/>
<path d="M2395 4380 c-3 -5 1 -10 10 -10 9 0 13 5 10 10 -3 6 -8 10 -10 10 -2
0 -7 -4 -10 -10z"/>
<path d="M3945 4220 c-3 -6 1 -7 9 -4 18 7 21 14 7 14 -6 0 -13 -4 -16 -10z"/>
<path d="M2466 4172 c-3 -5 1 -9 9 -9 8 0 12 4 9 9 -3 4 -7 8 -9 8 -2 0 -6 -4
-9 -8z"/>
<path d="M3955 4109 c-4 -6 -5 -12 -2 -15 2 -3 7 2 10 11 7 17 1 20 -8 4z"/>
<path d="M2481 4078 c-13 -22 -13 -22 4 -8 10 8 21 14 24 13 3 -1 8 1 11 4 3
4 0 3 -7 0 -6 -4 -13 -3 -15 3 -2 6 -9 0 -17 -12z"/>
<path d="M3925 4052 c2 -3 0 -13 -6 -23 -14 -27 -4 -24 14 4 13 20 13 24 1 24
-8 0 -12 -2 -9 -5z"/>
<path d="M3922 3994 c-7 -8 -8 -14 -3 -14 10 0 25 19 20 25 -2 1 -10 -3 -17
-11z"/>
<path d="M2685 3971 c-3 -5 -2 -12 3 -15 5 -3 9 1 9 9 0 17 -3 19 -12 6z"/>
<path d="M2516 3918 c3 -5 10 -6 15 -3 13 9 11 12 -6 12 -8 0 -12 -4 -9 -9z"/>
<path d="M548 3898 c-4 -9 -15 -15 -25 -13 -10 1 -24 -3 -32 -9 -12 -9 -13 -8
-6 4 7 13 6 13 -7 2 -13 -10 -17 -10 -21 0 -4 8 -6 7 -6 -4 -1 -11 -6 -15 -16
-12 -9 4 -15 0 -15 -7 0 -11 -3 -11 -10 1 -8 13 -10 12 -10 -3 0 -10 -4 -16
-9 -13 -19 12 -131 -67 -131 -92 0 -6 -7 -12 -15 -16 -8 -3 -15 -15 -15 -26 0
-12 -4 -18 -10 -15 -5 3 -12 -6 -16 -20 -3 -14 -10 -25 -14 -25 -5 0 -11 -13
-15 -30 -4 -16 -11 -30 -15 -30 -5 0 -6 -7 -3 -17 4 -10 2 -14 -4 -10 -6 4
-14 0 -17 -9 -4 -10 -2 -13 7 -8 8 6 8 3 -1 -9 -8 -9 -11 -21 -7 -27 3 -5 -2
-10 -12 -10 -15 0 -16 -2 -3 -10 13 -9 7 -14 -12 -11 -4 0 -3 -11 2 -25 8 -20
7 -25 -3 -21 -7 3 -13 -3 -13 -13 0 -10 5 -16 11 -13 5 3 4 0 -2 -8 -7 -7 -13
-24 -13 -37 0 -13 -4 -21 -8 -18 -5 3 -9 -1 -9 -9 0 -8 4 -12 9 -9 4 3 8 0 8
-5 0 -6 -5 -11 -12 -11 -9 0 -9 -3 -1 -11 13 -13 5 -42 -9 -33 -6 4 -5 -2 1
-14 8 -15 8 -22 -2 -25 -9 -4 -8 -6 2 -6 11 -1 11 -4 0 -18 -8 -9 -9 -14 -4
-11 11 7 12 -118 1 -129 -3 -4 1 -18 10 -32 13 -18 14 -26 5 -29 -8 -3 -6 -9
6 -18 13 -9 14 -13 4 -14 -11 0 -11 -3 -1 -15 12 -14 7 -19 -15 -16 -5 1 1 -8
14 -19 13 -12 21 -26 17 -35 -3 -8 -1 -15 4 -15 5 0 7 -7 4 -15 -3 -8 1 -21 9
-30 9 -9 13 -24 9 -37 -4 -19 -3 -21 9 -11 15 12 15 10 22 -66 1 -20 6 -27 16
-23 10 4 13 1 8 -11 -3 -9 -2 -19 4 -22 5 -4 7 -11 4 -16 -4 -5 -2 -9 3 -9 5
0 15 -12 22 -26 11 -20 12 -27 1 -33 -10 -6 -9 -10 4 -14 9 -4 13 -3 10 3 -3
6 -1 10 4 10 6 0 11 -9 11 -20 0 -11 4 -20 10 -20 5 0 6 -7 3 -17 -4 -10 -2
-14 4 -10 6 4 16 0 23 -8 7 -8 9 -15 4 -15 -4 0 3 -11 16 -26 21 -21 22 -27
10 -34 -12 -8 -10 -10 9 -10 20 0 22 -2 11 -15 -7 -9 -10 -18 -6 -22 3 -3 6
-1 6 5 0 7 8 12 18 11 11 0 12 -2 4 -6 -9 -3 -6 -11 10 -25 16 -14 19 -22 10
-25 -6 -3 -9 -9 -6 -15 4 -6 10 -5 15 3 8 12 11 11 19 -1 7 -11 5 -17 -8 -22
-10 -4 -11 -7 -4 -7 7 -1 22 4 33 9 24 13 25 2 2 -16 -17 -13 -17 -14 -1 -8
12 4 18 1 18 -10 0 -9 4 -16 10 -16 5 0 7 8 4 18 -3 9 3 5 12 -10 10 -16 22
-28 26 -28 5 0 8 -5 8 -11 0 -8 -5 -7 -15 1 -13 11 -18 11 -28 0 -10 -10 -9
-11 2 -5 9 5 19 1 28 -10 7 -11 13 -13 13 -7 0 20 32 13 37 -8 3 -12 11 -19
17 -17 19 7 62 -24 73 -54 7 -16 17 -28 25 -27 7 2 12 -2 11 -8 -1 -6 5 -11
13 -11 12 0 11 4 -2 18 -9 10 -20 16 -24 14 -9 -6 -23 25 -15 33 3 3 5 0 5 -7
0 -7 4 -9 10 -6 5 3 10 1 10 -5 0 -7 7 -10 15 -7 8 4 17 2 21 -4 4 -6 12 -5
22 3 9 7 13 8 10 3 -4 -6 0 -19 8 -30 8 -10 14 -13 14 -6 0 9 5 8 16 -3 21
-22 27 -20 14 4 -10 19 -10 20 9 8 11 -6 17 -16 15 -20 -3 -4 0 -8 5 -8 14 0
14 13 -1 28 -9 9 -9 12 0 12 7 0 12 -4 12 -9 0 -5 8 -8 18 -6 9 2 21 4 25 4 5
1 5 7 2 14 -4 6 2 2 13 -10 20 -22 20 -22 25 -2 5 17 9 19 24 10 21 -11 41
-10 61 2 11 8 16 2 13 -16 -1 -5 3 -6 9 -2 6 4 4 15 -6 31 -15 23 -15 24 0 18
11 -4 26 2 41 16 31 29 71 34 85 12 9 -14 10 -13 5 6 -6 22 -5 23 17 12 l23
-12 -22 21 c-13 12 -23 27 -23 34 0 9 2 9 8 0 4 -7 17 -11 28 -11 16 2 19 7
16 25 -2 13 -9 20 -16 16 -6 -3 -7 -2 -3 3 5 5 13 10 18 10 5 1 14 2 20 3 5 0
7 6 4 11 -4 6 -11 7 -17 4 -7 -4 -8 -2 -4 4 7 12 36 5 36 -9 0 -5 5 -9 12 -9
6 0 4 8 -6 19 -12 13 -14 21 -6 26 8 5 5 11 -7 21 -17 13 -17 14 1 7 14 -5 17
-3 11 7 -5 9 -4 11 3 6 11 -7 17 11 13 42 -2 15 15 16 25 0 4 -6 3 -8 -4 -4
-6 4 -9 -3 -8 -18 2 -14 -3 -27 -10 -30 -13 -5 -11 -43 2 -55 4 -3 4 2 1 12
-4 10 -1 17 6 17 9 0 8 3 -1 9 -11 7 -11 9 2 14 10 4 13 13 9 23 -5 13 -3 15
7 9 9 -5 11 -4 6 3 -4 7 -2 12 5 12 7 0 2 9 -11 20 -13 11 -18 20 -11 20 7 0
9 5 6 10 -3 6 -1 10 5 10 6 0 9 4 5 9 -3 5 -1 12 5 16 5 3 10 11 10 16 0 6 -6
7 -12 3 -9 -5 -9 -2 1 9 7 9 10 17 5 17 -4 0 -3 5 3 11 6 6 9 17 7 24 -3 7 -1
16 5 20 6 3 11 11 11 16 0 6 -6 7 -12 3 -9 -5 -9 -2 1 9 16 20 25 23 15 5 -4
-7 -4 -10 1 -6 4 4 14 3 21 -3 8 -7 14 -6 20 2 4 7 3 9 -3 6 -6 -4 -16 0 -23
8 -12 14 -7 20 14 16 5 -1 4 5 -4 13 -7 9 -10 16 -6 16 4 0 -1 15 -10 33 -14
26 -14 30 -2 20 13 -11 15 -8 13 18 -1 18 4 34 14 40 14 9 14 10 -1 5 -10 -3
-18 -1 -18 4 0 5 8 14 18 19 9 6 12 11 6 11 -5 0 -15 -5 -22 -12 -16 -16 -16
4 1 21 10 11 9 13 -5 8 -10 -3 -20 -1 -24 5 -4 7 -3 8 4 4 15 -9 16 16 2 30
-7 7 -6 11 4 11 8 0 12 -5 9 -10 -3 -6 -1 -7 6 -3 6 4 9 11 6 16 -3 5 3 13 12
19 10 6 13 11 7 11 -5 0 -15 -5 -21 -11 -14 -14 -28 6 -29 44 0 30 5 33 26 15
11 -10 11 -9 0 6 -14 18 -13 19 5 13 19 -7 19 -6 3 7 -10 7 -18 19 -18 27 0
11 -2 11 -10 -1 -6 -9 -5 -17 3 -22 8 -5 8 -8 1 -8 -20 0 -24 13 -10 35 15 23
16 41 3 62 -4 6 -1 14 5 16 10 4 10 6 1 6 -7 1 -13 6 -13 12 0 5 4 8 9 4 5 -3
13 0 17 6 4 7 3 9 -3 6 -13 -8 -36 17 -25 28 4 5 2 5 -5 1 -11 -6 -12 -3 -13
56 -1 18 -3 19 -10 8 -5 -8 -5 -21 1 -31 5 -10 5 -20 1 -23 -5 -3 -9 0 -10 7
0 7 -3 27 -6 45 -3 19 -1 30 4 27 6 -3 7 1 4 9 -3 9 -1 16 5 16 21 0 11 16
-11 17 -13 1 -18 -1 -11 -5 8 -5 8 -14 -3 -32 l-14 -25 6 27 c4 19 1 29 -13
37 -10 6 -12 11 -5 11 6 0 12 7 12 16 0 8 5 12 10 9 8 -5 7 -12 -2 -23 -12
-15 -11 -16 5 -3 15 12 16 16 4 30 -8 9 -12 23 -9 31 2 8 2 12 -2 9 -4 -4 -9
-17 -11 -29 -2 -12 -7 -25 -11 -29 -4 -3 -4 2 -1 12 4 9 2 17 -4 17 -7 0 -4
11 5 25 11 17 13 24 4 23 -7 -2 -12 3 -13 11 0 8 -7 16 -15 18 -13 4 -13 3 0
-6 8 -6 11 -11 6 -11 -5 0 -3 -7 4 -15 10 -12 9 -15 -4 -15 -10 0 -15 4 -11 9
3 6 -4 19 -16 29 -15 15 -17 22 -8 27 8 5 10 4 5 -3 -4 -7 -2 -12 3 -12 18 0
12 22 -7 27 -20 5 -48 43 -32 43 5 0 10 -4 10 -9 0 -5 6 -11 13 -14 8 -3 14 1
14 9 0 8 -3 12 -5 9 -10 -10 -31 17 -25 33 4 13 2 12 -10 -3 -14 -18 -15 -18
-12 6 2 19 -2 25 -18 27 -12 0 -23 5 -25 11 -2 5 -12 19 -23 32 -12 14 -17 30
-14 43 5 19 5 19 -5 3 -13 -21 -30 -13 -30 14 0 10 -7 19 -15 19 -8 0 -15 5
-15 10 0 6 -4 9 -8 8 -11 -4 -62 49 -55 56 4 3 -3 6 -15 6 -23 0 -55 37 -45
53 3 6 1 7 -5 3 -6 -4 -8 -14 -5 -24 4 -10 -4 -6 -19 10 -14 15 -28 25 -31 21
-4 -3 -7 -1 -7 6 0 8 -7 11 -15 7 -9 -3 -18 1 -21 9 -4 8 -13 15 -21 15 -9 0
-11 5 -7 13 5 7 1 7 -12 -3 -10 -8 -16 -10 -12 -6 4 5 3 15 -3 23 -10 11 -15
11 -27 1 -11 -9 -14 -9 -9 -1 6 9 -4 11 -33 10 -30 -2 -40 1 -40 13 -1 12 -3
12 -14 -3 -14 -18 -14 -18 -18 0 -3 16 -4 16 -10 1z m750 -767 c10 -6 9 -11
-4 -22 -14 -11 -16 -11 -10 0 5 8 3 17 -5 22 -8 5 -9 9 -4 9 6 0 16 -4 23 -9z
m11 -38 c-1 -5 -1 -10 1 -13 1 -3 3 -16 6 -30 3 -19 2 -21 -6 -10 -8 12 -10
13 -10 1 0 -8 -3 -11 -6 -8 -4 4 -2 13 5 21 9 11 9 15 0 18 -7 2 -9 10 -5 16
8 13 17 16 15 5z m26 -341 c-2 -9 -4 -18 -4 -20 -1 -2 -6 0 -11 3 -8 5 -8 11
-1 19 7 9 7 17 -2 26 -10 12 -9 12 5 2 9 -7 15 -21 13 -30z m0 -82 c3 -6 -1
-7 -9 -4 -18 7 -21 14 -7 14 6 0 13 -4 16 -10z m5 -25 c0 -12 -19 -12 -23 0
-4 9 -1 12 9 8 7 -3 14 -7 14 -8z m-210 -445 c0 -5 -5 -10 -11 -10 -5 0 -7 5
-4 10 3 6 8 10 11 10 2 0 4 -4 4 -10z m-135 -85 c0 -10 -35 -16 -47 -9 -5 3
-6 10 -3 15 7 10 50 6 50 -6z"/>
<path d="M4384 3881 c2 -3 -7 -11 -20 -18 -18 -8 -22 -8 -17 0 3 7 -3 4 -14
-6 -11 -9 -23 -14 -26 -11 -4 4 -9 -1 -13 -10 -3 -9 -10 -16 -16 -16 -5 0 -6
6 -2 13 4 7 3 9 -2 4 -5 -5 -8 -11 -6 -14 6 -9 -51 -42 -62 -36 -6 3 -8 3 -4
-2 10 -11 -41 -57 -54 -49 -7 5 -8 2 -3 -6 6 -10 4 -12 -7 -7 -12 4 -14 1 -10
-15 3 -14 1 -19 -6 -14 -7 4 -12 2 -12 -4 0 -6 -4 -9 -8 -6 -4 2 -14 -9 -21
-25 -7 -16 -16 -27 -20 -25 -4 3 -15 -8 -25 -25 -9 -16 -22 -29 -27 -29 -6 0
-7 -5 -4 -10 3 -6 -1 -13 -9 -16 -9 -3 -13 -10 -10 -15 3 -5 0 -9 -6 -9 -6 0
-8 -5 -4 -12 5 -8 2 -9 -10 -5 -10 4 -15 3 -11 -3 3 -5 -5 -29 -19 -53 -14
-24 -23 -48 -18 -53 4 -4 -2 -2 -12 6 -14 10 -17 11 -12 2 4 -7 2 -20 -6 -29
-11 -14 -11 -16 1 -9 9 6 12 5 9 -5 -3 -8 -11 -13 -18 -11 -11 3 -11 0 0 -12
8 -11 9 -16 1 -16 -6 0 -11 -9 -11 -21 0 -11 -4 -17 -10 -14 -6 4 -7 -1 -3
-11 5 -14 3 -16 -12 -11 -14 6 -15 4 -7 -5 13 -16 7 -71 -8 -76 -7 -3 -7 -9 2
-20 11 -13 10 -15 -4 -9 -16 6 -17 4 -8 -38 5 -20 0 -36 -9 -30 -6 3 -6 -7 -1
-26 7 -24 7 -29 -4 -20 -10 8 -12 5 -11 -12 1 -12 -3 -29 -9 -37 -10 -13 -9
-13 7 -1 19 15 19 17 3 -57 -3 -12 -1 -20 4 -17 10 6 8 -15 -4 -34 -5 -8 -3
-16 5 -22 12 -7 11 -9 -1 -9 -12 0 -12 -2 -2 -9 8 -4 14 -12 14 -16 0 -4 -6
-12 -14 -16 -8 -6 -9 -9 -1 -9 12 0 12 -17 0 -37 -4 -6 -2 -15 4 -19 8 -5 9
-3 4 6 -5 9 -4 11 3 6 8 -5 8 -15 2 -32 -6 -14 -6 -23 -1 -20 5 3 12 -1 15
-10 3 -8 2 -13 -3 -10 -5 3 -9 -10 -8 -29 1 -24 6 -35 16 -35 11 0 11 -3 -4
-13 -14 -11 -15 -16 -5 -22 9 -6 11 -4 5 5 -5 8 -4 11 3 6 6 -4 9 -13 5 -21
-3 -8 0 -15 7 -15 6 0 8 -5 3 -12 -11 -19 -13 -39 -2 -32 5 3 9 0 9 -5 0 -19
2 -26 12 -45 5 -10 6 -16 1 -13 -5 3 -9 -4 -10 -16 0 -12 1 -16 4 -9 3 6 9 12
14 12 4 0 5 -7 2 -17 -4 -10 -2 -14 4 -10 5 3 10 0 11 -8 1 -8 3 -22 4 -30 1
-8 5 -15 10 -15 4 0 8 -9 8 -20 0 -11 5 -20 10 -20 6 0 10 -9 10 -21 0 -13 4
-18 13 -13 7 5 6 0 -3 -11 -9 -11 -10 -16 -2 -11 7 4 12 2 12 -4 0 -6 5 -8 13
-4 8 5 8 3 -2 -9 -11 -14 -11 -18 5 -24 24 -9 44 -28 44 -43 0 -6 -6 -8 -12
-4 -8 4 -10 3 -5 -2 5 -5 17 -10 28 -10 32 -2 33 -3 13 -26 -10 -13 -12 -17
-4 -10 8 6 20 12 28 12 12 0 12 -3 2 -15 -11 -14 -10 -14 12 -6 27 10 38 6 38
-13 0 -7 -3 -7 -8 0 -5 9 -10 8 -19 -2 -8 -8 -9 -15 -3 -19 6 -3 10 -2 10 2 0
5 9 9 20 10 24 2 26 -6 4 -22 -15 -11 -15 -12 0 -12 9 0 16 4 16 9 0 13 28 9
47 -7 10 -8 22 -15 28 -14 5 0 13 -8 17 -18 7 -16 8 -16 5 2 -2 11 -9 19 -17
17 -10 -2 -11 0 -2 11 7 8 8 18 4 22 -4 5 -1 5 6 1 7 -4 10 -12 7 -17 -4 -5 1
-9 10 -9 9 0 13 -4 10 -10 -3 -6 1 -7 10 -4 13 5 13 9 3 23 -12 15 -11 15 7 0
11 -8 34 -15 50 -14 17 1 33 -3 37 -9 5 -8 14 -7 29 2 11 8 19 10 16 5 -3 -5
-2 -15 4 -23 7 -13 9 -12 9 2 0 9 5 20 12 24 7 5 8 3 3 -6 -6 -10 -4 -12 8 -7
10 3 17 2 17 -3 0 -5 -8 -11 -17 -13 -17 -4 -17 -5 0 -6 10 0 20 6 23 14 4 8
10 15 16 15 5 0 6 -6 2 -12 -4 -8 -3 -10 2 -5 5 5 10 13 10 18 1 5 2 13 3 18
0 5 21 8 45 7 25 -1 42 2 40 6 -9 15 28 21 37 7 8 -12 10 -12 8 1 -3 32 1 51
11 45 6 -4 7 -12 3 -18 -4 -7 0 -6 10 2 9 7 17 10 17 5 0 -8 34 35 36 46 4 24
19 38 35 35 13 -3 17 0 12 8 -13 21 -12 39 2 53 20 21 31 17 12 -4 -20 -22 -6
-55 15 -34 7 8 9 13 3 12 -23 -5 -25 1 -5 22 13 15 17 25 10 32 -5 5 -10 15
-10 21 0 5 4 4 9 -4 8 -12 12 -13 25 -2 13 11 14 16 4 29 -11 13 -11 14 1 7
11 -6 13 -4 7 10 -5 15 -4 16 8 6 16 -14 25 -4 20 22 -1 12 2 17 11 13 9 -3
12 3 10 20 -1 14 3 24 11 24 7 0 16 4 19 10 3 5 0 7 -8 4 -8 -3 -14 2 -14 11
0 9 6 14 13 11 20 -8 26 11 13 35 -9 17 -8 20 2 14 9 -6 11 -3 6 8 -4 10 -2
16 5 14 6 -1 13 4 16 12 3 8 0 11 -7 7 -6 -4 -11 -2 -11 5 0 6 8 9 19 6 10 -2
25 0 32 5 11 8 10 9 -3 4 -10 -3 -18 -1 -18 5 0 6 -4 7 -10 4 -6 -4 -7 1 -3
11 4 11 8 13 11 6 2 -7 10 -12 19 -12 12 0 11 3 -3 17 -13 13 -14 18 -3 22 7
2 15 -1 17 -7 2 -7 8 -12 14 -12 5 0 1 11 -10 25 -21 26 -23 62 -4 58 7 -2 9
9 7 26 -2 19 2 31 11 35 9 3 12 10 9 16 -4 6 -11 8 -16 5 -5 -4 -9 -1 -9 4 0
18 18 12 34 -11 14 -20 15 -19 10 23 -3 24 -10 47 -16 50 -6 4 -5 8 3 11 12 5
12 9 0 29 -13 22 -13 23 2 10 10 -8 17 -9 17 -3 0 6 -5 14 -10 17 -8 5 -7 12
1 22 10 12 10 17 -2 25 -11 8 -10 9 4 4 10 -3 21 -6 23 -6 3 0 2 -6 -3 -12
-13 -23 -13 -40 1 -29 7 6 17 7 21 3 5 -4 4 0 -1 8 -12 22 -14 39 -3 46 6 3 5
12 -3 21 -7 9 -13 21 -14 27 0 6 -2 17 -2 24 -1 7 -6 11 -11 8 -10 -7 -9 20 2
30 4 4 -1 13 -11 21 -16 12 -16 13 2 6 13 -4 17 -3 12 5 -12 19 -16 53 -5 47
5 -4 7 -10 4 -15 -3 -4 1 -13 8 -18 10 -9 13 -6 13 13 0 13 -3 22 -7 19 -4 -2
-10 3 -13 12 -10 25 -7 27 12 13 9 -7 14 -9 10 -5 -4 5 -2 16 5 24 10 13 9 14
-3 7 -21 -13 -50 -14 -57 -2 -3 6 -1 7 5 3 7 -4 12 -1 12 8 0 8 -6 17 -12 20
-7 3 -2 3 11 0 15 -4 21 -2 17 4 -4 6 2 15 11 21 10 6 13 11 8 11 -6 0 -16 -5
-22 -11 -7 -7 -10 -3 -10 16 0 15 -6 31 -13 35 -7 5 -11 19 -8 34 5 23 3 24
-10 14 -13 -11 -15 -10 -9 4 4 11 0 21 -11 27 -14 8 -15 12 -4 23 11 11 13 10
10 -2 -2 -8 3 -14 10 -12 6 1 12 -3 12 -9 0 -5 5 -7 11 -3 8 5 6 10 -5 16 -9
5 -14 13 -11 18 3 4 -6 7 -19 6 -19 -2 -23 1 -21 15 2 11 0 19 -6 19 -5 0 -9
7 -9 16 0 8 -4 13 -9 10 -4 -3 -8 4 -7 17 0 12 -4 21 -10 20 -14 -2 -15 28 -1
45 5 7 7 15 3 19 -3 3 -6 1 -6 -5 0 -7 -7 -12 -16 -12 -14 0 -14 3 -4 15 7 9
10 18 6 22 -3 3 -6 0 -6 -8 -1 -8 -8 -1 -16 14 -9 17 -20 25 -27 20 -7 -4 -6
2 3 13 8 10 11 16 6 12 -10 -8 -36 15 -36 32 0 6 -5 8 -12 4 -9 -5 -8 -2 1 9
12 15 12 17 -3 11 -11 -4 -19 1 -25 17 -5 13 -6 28 -3 33 3 5 0 6 -6 2 -6 -4
-9 -14 -6 -24 5 -15 4 -15 -6 1 -9 14 -9 22 1 35 11 14 11 15 -1 5 -16 -14
-54 2 -44 19 4 7 -1 8 -17 3 -22 -7 -23 -6 -10 9 12 15 12 17 0 14 -8 -2 -17
-7 -21 -13 -5 -6 -8 -5 -8 3 0 6 -9 12 -20 12 -11 0 -20 5 -20 12 0 9 -3 9
-12 0 -7 -7 -17 -12 -22 -12 -6 0 -4 5 4 11 12 9 11 10 -7 6 -14 -3 -23 0 -23
6 0 8 -4 7 -9 -2 -7 -11 -11 -10 -20 5 -6 12 -11 14 -11 5 0 -8 -6 -11 -17 -6
-10 4 -29 9 -43 11 -19 3 -22 2 -10 -6 13 -8 13 -10 -1 -10 -9 0 -19 3 -23 7
-9 9 -37 13 -32 4z m619 -576 c4 -8 3 -16 -1 -19 -4 -3 -9 4 -9 15 -2 23 3 25
10 4z m22 -265 c3 -5 1 -10 -4 -10 -6 0 -11 5 -11 10 0 6 2 10 4 10 3 0 8 -4
11 -10z m14 -34 c8 -10 9 -16 1 -21 -5 -3 -10 0 -10 9 0 8 -6 17 -12 19 -8 4
-9 6 -2 6 6 1 17 -5 23 -13z m-36 -176 c3 -11 1 -18 -4 -14 -5 3 -9 12 -9 20
0 20 7 17 13 -6z m-108 -330 c3 -6 -1 -7 -9 -4 -18 7 -21 14 -7 14 6 0 13 -4
16 -10z m-41 -68 c3 -5 -1 -9 -9 -9 -8 0 -12 4 -9 9 3 4 7 8 9 8 2 0 6 -4 9
-8z m-24 -34 c0 -4 -4 -8 -9 -8 -6 0 -12 4 -15 8 -3 5 1 9 9 9 8 0 15 -4 15
-9z m-20 -63 c0 -12 -19 -12 -23 0 -4 9 -1 12 9 8 7 -3 14 -7 14 -8z m-83
-100 c0 -8 -4 -12 -9 -9 -4 3 -8 9 -8 15 0 5 4 9 8 9 5 0 9 -7 9 -15z m-32
-22 c-4 -10 -8 -24 -9 -32 -2 -8 -13 -22 -26 -30 -13 -9 -21 -11 -17 -4 4 6 1
14 -5 17 -7 4 -2 4 10 2 20 -4 23 -1 19 15 -3 10 -1 17 3 14 5 -3 11 4 15 15
3 11 9 20 12 20 3 0 2 -8 -2 -17z m-88 -72 c0 -11 -5 -18 -9 -15 -4 3 -5 11
-1 19 7 21 12 19 10 -4z m-407 -61 c0 -5 -2 -10 -4 -10 -3 0 -8 5 -11 10 -3 6
-1 10 4 10 6 0 11 -4 11 -10z"/>
<path d="M870 3781 c0 -6 4 -12 8 -15 5 -3 9 1 9 9 0 8 -4 15 -9 15 -4 0 -8
-4 -8 -9z"/>
<path d="M3845 3743 c1 -33 17 -40 36 -16 11 15 11 16 -1 6 -19 -17 -35 -16
-21 1 8 10 8 16 -2 25 -11 9 -14 6 -12 -16z"/>
<path d="M4783 3755 c0 -7 6 -11 14 -8 7 3 13 6 13 8 0 2 -6 5 -13 8 -8 3 -14
-1 -14 -8z"/>
<path d="M2475 3730 c3 -5 8 -10 11 -10 2 0 4 5 4 10 0 6 -5 10 -11 10 -5 0
-7 -4 -4 -10z"/>
<path d="M951 3713 c7 -12 15 -20 18 -17 3 2 -3 12 -13 22 -17 16 -18 16 -5
-5z"/>
<path d="M4831 3708 c5 -10 11 -18 12 -18 2 0 3 8 3 18 0 10 -6 19 -13 19 -8
0 -9 -6 -2 -19z"/>
<path d="M3834 3662 c3 -5 0 -13 -6 -15 -9 -4 -10 -6 -1 -6 17 -1 25 16 12 25
-7 4 -9 3 -5 -4z"/>
<path d="M4866 3657 c3 -10 9 -15 12 -12 3 3 0 11 -7 18 -10 9 -11 8 -5 -6z"/>
<path d="M1021 3644 c0 -11 3 -14 6 -6 3 7 2 16 -1 19 -3 4 -6 -2 -5 -13z"/>
<path d="M2461 3621 c-9 -6 -10 -11 -2 -15 6 -4 11 -2 11 4 0 6 5 8 12 4 7 -4
8 -3 4 4 -8 14 -7 14 -25 3z"/>
<path d="M1073 3588 c24 -33 32 -36 17 -8 -6 11 -9 24 -6 28 2 4 -4 8 -13 8
-17 0 -17 -2 2 -28z"/>
<path d="M1110 3580 c0 -5 5 -10 11 -10 5 0 7 5 4 10 -3 6 -8 10 -11 10 -2 0
-4 -4 -4 -10z"/>
<path d="M3771 3576 c-12 -14 -12 -16 3 -10 13 5 15 2 10 -12 -8 -20 -6 -19
16 10 8 11 10 17 3 13 -6 -4 -13 -2 -15 4 -2 7 -9 5 -17 -5z"/>
<path d="M4906 3573 c-3 -3 1 -15 11 -25 9 -10 13 -18 9 -18 -14 0 26 -48 44
-53 11 -3 18 -1 14 4 -3 5 -11 9 -19 9 -14 0 -29 27 -26 48 1 6 -3 12 -9 12
-6 0 -9 4 -5 9 6 11 -9 23 -19 14z"/>
<path d="M2773 3525 c0 -8 4 -12 9 -9 5 3 6 10 3 15 -9 13 -12 11 -12 -6z"/>
<path d="M2802 3461 c-11 -7 -11 -9 0 -14 9 -3 15 1 15 9 0 8 -1 14 -1 14 -1
0 -7 -4 -14 -9z"/>
<path d="M2370 3361 c0 -6 4 -12 8 -15 5 -3 9 1 9 9 0 8 -4 15 -9 15 -4 0 -8
-4 -8 -9z"/>
<path d="M3543 3257 c-13 -17 -23 -25 -23 -17 -1 12 -3 11 -11 -3 -6 -10 -15
-14 -22 -10 -7 4 -6 0 2 -10 16 -20 22 -22 19 -4 -2 6 2 11 9 10 7 -2 17 7 23
18 7 11 17 18 25 16 9 -4 11 1 8 14 -3 10 -6 19 -7 19 0 0 -11 -15 -23 -33z"/>
<path d="M3590 3269 c0 -5 5 -7 10 -4 6 3 10 8 10 11 0 2 -4 4 -10 4 -5 0 -10
-5 -10 -11z"/>
<path d="M1555 3231 c-3 -5 -2 -12 3 -15 5 -3 9 1 9 9 0 17 -3 19 -12 6z"/>
<path d="M3410 3186 c-6 -6 -16 -11 -22 -11 -6 0 -13 -6 -15 -12 -5 -15 13
-17 22 -3 4 6 10 8 14 5 5 -2 16 4 25 14 13 15 14 18 1 18 -8 0 -19 -5 -25
-11z"/>
<path d="M3150 3160 c0 -5 5 -10 11 -10 5 0 7 5 4 10 -3 6 -8 10 -11 10 -2 0
-4 -4 -4 -10z"/>
<path d="M3322 3151 c7 -12 14 -17 16 -11 2 6 9 7 15 3 7 -3 8 -2 4 3 -5 5
-12 9 -15 9 -4 0 -13 4 -20 9 -11 7 -11 4 0 -13z"/>
<path d="M2230 3141 c0 -6 4 -12 8 -15 5 -3 9 1 9 9 0 8 -4 15 -9 15 -4 0 -8
-4 -8 -9z"/>
<path d="M5035 3111 c3 -5 1 -12 -5 -16 -6 -4 -8 -11 -5 -16 11 -17 23 -9 23
16 0 14 -5 25 -10 25 -5 0 -7 -4 -3 -9z"/>
<path d="M1740 3095 c-7 -9 -10 -18 -6 -22 3 -3 6 -1 6 7 0 10 4 10 18 -1 15
-12 16 -12 5 2 -7 9 -10 19 -6 22 3 4 4 7 1 7 -3 0 -11 -7 -18 -15z"/>
<path d="M1870 3060 c-9 -6 -10 -10 -3 -10 6 0 15 5 18 10 8 12 4 12 -15 0z"/>
<path d="M5055 3061 c-3 -5 -2 -12 3 -15 5 -3 9 1 9 9 0 17 -3 19 -12 6z"/>
<path d="M1956 3038 c3 -4 11 -5 19 -1 21 7 19 12 -4 10 -11 0 -18 -5 -15 -9z"/>
<path d="M1323 2928 c-1 -10 3 -18 9 -16 18 6 21 25 5 31 -8 3 -13 -3 -14 -15z"/>
<path d="M5022 2885 c-8 -18 -8 -26 0 -31 7 -4 8 -3 4 4 -4 7 -3 12 1 12 5 0
9 9 10 20 2 26 -1 25 -15 -5z"/>
<path d="M1340 2846 c0 -2 7 -6 15 -10 8 -3 15 -1 15 4 0 6 -7 10 -15 10 -8 0
-15 -2 -15 -4z"/>
<path d="M4990 2761 c0 -6 4 -13 10 -16 6 -3 7 1 4 9 -7 18 -14 21 -14 7z"/>
<path d="M143 2725 c0 -8 4 -12 9 -9 5 3 6 10 3 15 -9 13 -12 11 -12 -6z"/>
<path d="M4990 2720 c13 -24 17 -25 17 -5 0 8 -6 16 -14 19 -11 4 -11 1 -3
-14z"/>
<path d="M4964 2692 c2 -9 8 -18 14 -20 17 -5 15 25 -2 31 -9 4 -13 0 -12 -11z"/>
<path d="M1322 2578 c-15 -15 -15 -28 -1 -28 5 0 8 4 5 9 -4 5 0 11 6 14 7 2
10 7 7 10 -3 4 -11 1 -17 -5z"/>
<path d="M4936 2553 c-6 -14 -5 -15 5 -6 7 7 10 15 7 18 -3 3 -9 -2 -12 -12z"/>
<path d="M1309 2538 c-7 -23 -5 -39 4 -45 7 -3 9 -3 5 2 -4 4 -3 16 3 26 6 13
6 19 -1 19 -5 0 -10 -1 -11 -2z"/>
<path d="M4915 2520 c3 -5 8 -10 11 -10 2 0 4 5 4 10 0 6 -5 10 -11 10 -5 0
-7 -4 -4 -10z"/>
<path d="M270 2482 c0 -5 12 -19 28 -33 l27 -24 -23 26 c-12 14 -19 29 -15 32
3 4 1 7 -5 7 -7 0 -12 -4 -12 -8z"/>
<path d="M1299 2479 c-4 -20 -7 -36 -10 -48 -2 -7 3 -16 11 -18 13 -4 13 -3 0
6 -10 7 -11 11 -2 11 6 0 11 5 10 12 -2 7 2 12 9 13 6 0 15 5 20 10 4 6 4 7
-1 3 -5 -4 -15 -3 -23 3 -7 6 -13 10 -14 8z"/>
<path d="M2564 2451 c3 -5 -9 -8 -27 -7 -17 2 -38 -2 -44 -7 -9 -6 -13 -5 -13
4 0 11 -2 11 -10 -1 -8 -12 -10 -12 -10 -1 0 10 -3 11 -13 2 -10 -8 -17 -7
-27 2 -10 9 -11 9 -6 0 5 -9 -2 -13 -23 -13 -16 0 -33 -5 -36 -10 -4 -7 -13
-7 -26 0 -15 9 -21 7 -25 -5 -6 -14 -8 -14 -20 2 -12 15 -13 15 -8 2 3 -10 1
-20 -5 -24 -6 -3 -11 -1 -11 6 0 7 -8 6 -25 -5 -14 -9 -25 -13 -25 -9 0 5 -5
1 -10 -7 -6 -10 -10 -11 -10 -2 0 6 -5 12 -12 12 -6 0 -8 -3 -5 -7 8 -7 -38
-33 -59 -33 -7 0 -18 -8 -23 -17 -6 -10 -11 -13 -11 -8 0 6 -5 3 -10 -5 -8
-13 -10 -13 -10 0 0 10 -5 7 -16 -8 -8 -12 -22 -22 -30 -22 -8 0 -14 -5 -14
-11 0 -5 -5 -7 -10 -4 -6 3 -13 0 -16 -8 -3 -9 -17 -18 -30 -21 -14 -4 -22
-10 -19 -15 2 -5 -6 -12 -20 -15 -14 -4 -25 -11 -25 -16 0 -6 -7 -10 -15 -10
-8 0 -15 -7 -15 -16 0 -8 -4 -13 -9 -10 -5 3 -11 -1 -15 -9 -3 -8 -15 -15 -26
-15 -12 0 -18 -4 -15 -10 3 -5 0 -10 -7 -10 -8 0 -21 -8 -30 -17 -28 -30 -46
-42 -52 -36 -3 4 -6 1 -6 -5 0 -7 -7 -12 -15 -12 -8 0 -15 -7 -15 -16 0 -8 -4
-12 -10 -9 -5 3 -10 0 -10 -7 0 -9 -3 -9 -10 2 -8 13 -10 12 -10 -3 0 -19 -38
-39 -55 -29 -5 3 -3 -3 5 -13 9 -11 10 -16 3 -11 -8 4 -13 2 -13 -6 0 -9 -3
-9 -10 2 -8 13 -10 13 -10 -2 0 -12 -5 -15 -17 -11 -12 5 -15 2 -10 -10 3 -9
3 -16 -1 -16 -20 3 -33 -2 -27 -11 3 -6 -1 -7 -9 -4 -9 4 -18 0 -22 -9 -3 -9
-14 -14 -25 -12 -11 2 -17 0 -14 -6 4 -5 1 -9 -5 -9 -6 0 -9 -4 -6 -8 3 -5 -1
-9 -9 -10 -8 -1 -22 -3 -30 -4 -8 -1 -16 -7 -19 -15 -3 -7 -12 -13 -21 -13 -8
0 -15 -5 -15 -11 0 -5 -4 -8 -9 -5 -5 3 -20 -5 -34 -18 -17 -15 -28 -20 -31
-13 -2 7 -5 4 -5 -6 -1 -10 -5 -15 -11 -12 -5 3 -10 1 -10 -4 0 -6 -6 -11 -14
-11 -8 0 -21 -9 -29 -20 -8 -11 -17 -17 -20 -13 -4 3 -7 0 -7 -7 0 -7 -2 -11
-5 -8 -8 7 -65 -50 -65 -64 0 -6 -3 -9 -6 -5 -10 10 -36 -22 -28 -34 4 -7 3
-9 -3 -6 -6 4 -18 -5 -27 -18 -10 -16 -22 -23 -29 -18 -7 4 -5 -2 3 -12 8 -10
10 -16 4 -12 -6 3 -16 -8 -24 -28 -7 -19 -17 -32 -22 -29 -4 3 -8 -2 -8 -11 0
-9 -9 -30 -21 -46 -11 -16 -17 -33 -14 -39 3 -6 -1 -13 -9 -16 -9 -3 -16 -15
-16 -25 0 -10 -5 -19 -10 -19 -6 0 -10 -6 -9 -12 3 -27 -1 -39 -12 -32 -7 4
-10 1 -7 -7 3 -8 -1 -29 -8 -48 -8 -18 -11 -37 -8 -42 3 -5 -3 -9 -13 -10 -10
0 -13 -3 -5 -6 6 -2 12 -9 12 -14 0 -6 -4 -8 -8 -5 -5 3 -8 -5 -7 -17 1 -12
-3 -25 -9 -29 -7 -5 -6 -8 4 -8 13 0 13 -1 0 -10 -13 -9 -13 -11 0 -20 13 -9
7 -14 -13 -11 -10 1 -4 -22 8 -31 7 -5 6 -14 -3 -28 -8 -14 -9 -20 -1 -20 8 0
8 -5 -1 -15 -10 -12 -10 -15 0 -15 9 0 9 -4 -1 -17 -8 -10 -9 -14 -2 -10 6 4
14 3 18 -3 3 -5 3 -10 -2 -10 -4 0 -8 -11 -8 -24 0 -13 3 -22 8 -19 7 4 10
-10 8 -39 -1 -10 2 -18 8 -18 6 0 7 -7 4 -17 -5 -12 -3 -14 8 -8 8 4 11 5 7 0
-4 -4 -3 -16 2 -26 7 -12 6 -19 -3 -22 -7 -4 -6 -6 4 -6 9 -1 20 -8 23 -17 3
-8 2 -12 -3 -9 -5 3 -13 1 -16 -5 -4 -6 -3 -10 2 -9 26 5 35 -3 31 -25 -4 -17
-1 -23 9 -19 8 3 13 -3 13 -18 0 -19 2 -21 10 -9 8 12 10 11 10 -7 0 -13 -4
-23 -10 -23 -5 0 -10 -5 -10 -11 0 -8 5 -7 15 1 9 7 17 11 18 9 1 -2 11 -15
22 -28 11 -14 15 -22 10 -18 -6 3 -11 -4 -12 -16 0 -12 1 -16 4 -9 6 16 33 16
35 0 5 -46 19 -73 28 -57 6 9 13 8 27 -6 16 -17 16 -18 1 -12 -10 3 -19 3 -22
-1 -2 -4 7 -9 22 -10 15 -1 33 -10 42 -19 14 -15 13 -16 -3 -4 -15 12 -17 12
-11 -3 3 -9 14 -16 24 -16 26 0 61 -32 63 -57 0 -12 4 -20 8 -18 8 6 41 -30
34 -37 -3 -2 4 -4 15 -3 11 1 23 5 27 10 5 4 2 5 -6 0 -10 -5 -12 -4 -7 4 10
16 29 2 21 -16 -5 -14 -3 -14 12 -2 15 12 16 12 10 -3 -3 -10 -1 -21 7 -25 7
-5 16 -15 19 -23 4 -12 6 -11 6 3 1 10 -6 20 -14 23 -8 4 -12 10 -9 15 7 12
35 -16 38 -38 2 -9 9 -19 17 -21 9 -2 10 0 4 5 -12 9 -13 29 -2 37 4 3 5 3 2
0 -4 -7 19 -34 30 -34 3 0 3 5 -1 12 -4 7 -3 8 5 4 6 -4 8 -12 5 -18 -5 -8 -1
-9 10 -5 10 4 15 3 11 -3 -8 -14 8 -13 22 1 9 9 17 4 31 -20 l19 -31 12 22 c9
19 11 19 6 3 l-5 -20 16 20 c16 20 16 20 9 -3 -7 -23 -6 -23 30 -8 19 8 33 11
30 7 -2 -5 2 -14 9 -20 11 -9 16 -9 22 0 4 8 3 9 -4 5 -7 -4 -12 -2 -12 3 0 6
6 11 14 11 8 0 17 6 19 13 4 9 6 9 6 0 1 -7 8 -13 17 -13 9 0 12 5 8 13 -6 9
-4 9 8 -1 13 -10 17 -10 21 0 4 10 6 9 6 -2 1 -10 6 -8 16 8 15 20 18 21 40 6
16 -11 25 -12 30 -4 5 8 13 6 27 -7 20 -18 21 -18 10 3 -12 22 -7 34 12 34 7
0 7 -3 -1 -8 -8 -5 -4 -16 12 -36 17 -22 23 -25 22 -11 -1 10 4 20 12 23 9 3
11 0 6 -9 -5 -8 2 -5 14 5 26 23 51 29 51 13 0 -7 5 -5 10 3 12 18 14 40 2 25
-9 -12 -52 -16 -52 -4 0 4 8 8 18 8 42 0 89 9 110 20 12 6 28 9 34 5 8 -5 9
-1 4 12 -4 13 2 9 19 -10 14 -16 25 -24 25 -18 0 8 7 9 26 2 16 -7 23 -7 19 0
-3 6 -12 10 -20 10 -7 0 -15 6 -18 13 -3 8 1 14 9 14 7 0 11 -5 8 -11 -3 -6 2
-2 12 9 13 16 16 17 11 3 -3 -10 -1 -20 5 -24 7 -4 8 -3 4 4 -4 7 -2 12 4 12
6 0 8 5 5 11 -4 6 0 9 11 7 13 -2 18 2 16 12 -3 12 -1 13 9 2 14 -13 33 -17
25 -4 -7 12 26 8 49 -6 18 -11 16 -11 -12 -7 -22 3 -33 1 -33 -7 0 -6 3 -8 7
-5 3 4 12 -1 20 -11 12 -16 13 -16 6 2 -4 13 -3 17 5 12 23 -14 34 5 15 27 -9
12 -11 16 -3 10 16 -15 34 -17 26 -4 -4 5 2 7 13 4 10 -3 22 0 25 6 9 14 26
14 26 1 0 -6 -5 -9 -11 -8 -6 2 -13 -8 -15 -22 l-5 -25 16 22 c12 17 21 20 38
15 36 -13 52 -8 49 13 -2 18 -2 19 8 2 12 -19 69 -51 77 -44 2 3 -5 8 -16 12
-12 3 -21 11 -21 16 0 5 -3 8 -7 7 -5 -2 -9 1 -11 7 -2 5 1 11 7 13 6 2 11 -1
11 -8 0 -6 5 -8 12 -4 6 4 9 3 5 -2 -3 -5 12 -16 32 -25 29 -12 38 -13 38 -3
0 6 -5 10 -11 8 -7 -3 -20 2 -30 9 -15 11 -16 16 -6 22 8 5 11 4 7 -2 -4 -6 0
-14 9 -17 23 -9 26 -8 18 7 -6 9 -5 9 8 0 8 -7 18 -9 23 -5 4 4 4 -4 1 -18 -6
-19 -5 -21 3 -10 6 8 11 11 11 6 0 -4 12 0 27 9 18 12 28 14 31 7 2 -7 8 -12
13 -12 6 0 6 8 -1 19 -7 14 -7 22 2 27 6 4 8 3 5 -3 -4 -6 2 -18 12 -27 15
-13 18 -14 18 -1 0 8 -4 12 -9 9 -4 -3 -8 0 -8 6 0 7 8 9 21 5 13 -4 19 -3 16
2 -4 6 4 8 18 5 16 -3 25 0 25 9 0 7 3 9 6 6 4 -4 1 -13 -6 -22 -16 -19 -9
-19 36 0 19 8 32 10 29 5 -3 -5 13 -8 40 -5 25 2 45 -1 45 -6 0 -6 -4 -8 -9
-4 -15 9 -25 -15 -12 -28 9 -9 11 -8 6 3 -4 11 2 16 25 16 16 1 30 -3 30 -8 0
-5 -6 -6 -12 -2 -9 5 -9 2 1 -9 17 -21 22 -21 47 -1 18 15 18 15 -3 5 -29 -14
-33 -14 -27 3 3 9 12 12 21 9 12 -5 14 -3 8 8 -5 8 2 5 14 -6 13 -11 25 -19
27 -17 2 1 9 2 15 2 8 0 8 -4 0 -14 -10 -12 -8 -13 10 -9 13 4 20 2 16 -4 -3
-5 0 -10 8 -10 8 0 12 4 9 9 -3 4 2 8 11 8 10 0 13 -5 9 -12 -4 -7 -3 -8 5 -4
8 6 9 12 2 20 -8 9 -7 13 3 13 9 0 13 -9 11 -26 -2 -22 -1 -23 10 -8 17 24 28
21 20 -5 -5 -18 -4 -20 4 -8 8 11 11 11 12 3 3 -28 4 -32 11 -39 4 -3 5 3 3
15 -3 11 -7 30 -9 41 -3 12 -1 18 5 15 5 -4 7 -10 4 -15 -11 -18 35 -32 66
-21 18 6 27 6 24 1 -4 -6 1 -10 10 -10 9 0 13 5 10 11 -4 6 2 5 13 -2 12 -7
18 -17 16 -21 -3 -4 2 -8 10 -8 9 0 16 -5 16 -11 0 -8 4 -8 15 1 16 13 39 4
29 -12 -4 -7 -2 -8 5 -4 6 4 20 2 29 -6 15 -11 15 -11 5 3 -7 9 -9 20 -5 24 4
5 2 6 -3 2 -15 -8 -40 8 -26 17 6 4 11 3 11 -2 0 -9 12 -12 78 -14 23 -1 42
-6 42 -11 0 -4 5 -5 12 -1 7 4 8 3 4 -4 -4 -7 -3 -12 3 -12 5 0 14 7 19 16 8
15 10 15 15 0 4 -9 13 -13 22 -10 8 3 15 1 15 -6 0 -6 -4 -9 -8 -6 -5 3 -9 -1
-9 -9 0 -10 4 -12 12 -5 14 11 42 7 57 -8 7 -7 17 -12 23 -12 5 0 2 5 -8 11
-9 6 -14 15 -11 21 5 7 2 8 -6 3 -9 -5 -11 -4 -6 4 4 6 18 9 31 7 13 -3 25 -1
27 4 2 4 9 2 16 -6 11 -13 10 -14 -12 -10 -14 3 -28 1 -30 -3 -3 -4 5 -7 17
-8 12 0 31 -4 42 -8 11 -4 16 -3 10 2 -5 4 -11 15 -11 24 -1 19 38 18 61 -1 8
-7 15 -9 15 -5 0 4 8 1 17 -6 12 -10 15 -11 9 -1 -6 9 -1 11 19 8 22 -4 25 -3
15 9 -7 8 -16 12 -21 9 -5 -3 -18 -7 -28 -9 -14 -3 -18 1 -14 12 4 9 8 11 12
4 4 -6 12 -6 20 -2 7 5 23 6 35 4 18 -4 19 -3 6 7 -13 10 -13 11 3 6 11 -4 17
0 18 12 0 9 3 12 5 5 3 -7 0 -22 -7 -35 -11 -21 -11 -22 4 -10 9 8 22 10 28 6
8 -4 9 -3 5 4 -4 7 -2 12 4 12 6 0 8 4 5 10 -4 6 1 7 11 3 12 -4 15 -3 10 5
-10 17 0 15 18 -4 14 -13 16 -13 16 -1 0 9 -5 17 -10 19 -6 2 0 9 12 17 21 13
22 13 10 -1 -10 -13 -8 -18 15 -33 27 -18 28 -18 13 0 -14 17 -13 18 3 12 11
-4 16 -3 12 3 -3 6 -1 10 4 10 6 0 11 6 11 14 0 8 9 18 20 21 11 4 17 11 14
17 -4 6 2 6 15 -1 23 -13 28 -22 9 -17 -7 1 -10 1 -6 -1 4 -2 5 -12 2 -21 -5
-16 -5 -16 6 0 6 9 16 16 23 14 6 -1 9 -1 4 1 -13 8 3 22 18 16 18 -6 20 13 3
23 -7 5 -8 2 -3 -7 5 -8 5 -11 0 -7 -4 4 -14 3 -22 -3 -9 -9 -13 -8 -13 0 0 6
5 11 11 11 5 0 8 4 4 9 -8 14 33 5 54 -11 10 -8 9 -4 -4 11 l-20 24 22 -12
c16 -8 24 -8 29 0 4 8 9 7 15 -2 7 -11 9 -11 10 -1 1 6 2 18 3 25 1 6 -2 19
-8 27 -6 8 0 6 12 -4 14 -12 20 -26 17 -35 -5 -13 -4 -13 6 -4 9 9 9 16 1 26
-18 21 40 82 77 81 25 -1 29 2 25 22 -5 28 3 30 36 7 l25 -16 -23 25 -23 25
32 27 c21 18 38 25 53 21 17 -5 18 -4 6 4 -11 8 -12 11 -2 11 7 0 10 5 7 10
-3 6 2 10 12 11 11 0 13 3 5 6 -6 2 -10 9 -6 14 3 5 -2 12 -11 15 -13 5 -12
11 11 41 22 28 24 37 13 44 -12 7 -11 9 1 10 8 1 19 1 23 0 5 -1 6 8 2 19 -4
12 -2 20 5 20 6 0 9 -4 6 -9 -3 -5 0 -14 7 -19 10 -9 13 -3 12 28 0 21 -4 42
-8 47 -5 4 -7 -1 -5 -11 1 -10 -2 -21 -9 -23 -16 -6 -10 44 7 60 10 10 11 9 5
-2 -5 -9 -4 -12 3 -7 5 3 12 2 14 -4 2 -6 9 0 17 12 13 21 13 22 -2 9 -10 -7
-18 -11 -18 -7 -1 3 -3 11 -4 16 -1 6 -3 13 -4 17 0 4 -8 -2 -17 -13 -14 -18
-15 -18 -4 4 6 12 8 28 4 34 -5 7 -3 8 6 3 10 -6 12 -4 7 9 -5 11 -3 15 4 10
7 -4 10 -1 7 7 -3 8 -12 13 -19 11 -11 -3 -11 -1 -2 9 10 10 16 9 30 -2 10 -7
15 -9 11 -5 -4 5 -2 16 5 25 11 14 10 14 -6 2 -17 -13 -18 -13 -15 4 1 11 -2
20 -9 20 -6 0 -15 4 -20 9 -5 5 -3 6 5 2 8 -5 13 -3 11 5 -3 28 1 38 15 33 8
-3 16 -1 20 4 6 10 -24 9 -42 -2 -7 -4 -16 -5 -19 -2 -4 3 -1 6 5 6 7 0 12 7
12 15 0 8 -4 15 -9 15 -6 0 -9 9 -8 20 1 11 5 20 10 20 5 0 6 -7 3 -16 -4 -10
-2 -13 6 -8 6 4 8 3 4 -4 -3 -6 -1 -14 5 -18 8 -5 9 -3 4 6 -6 10 -3 12 11 7
18 -7 18 -6 2 6 -10 8 -15 17 -11 20 3 4 1 7 -6 7 -7 0 -9 5 -4 13 12 19 12
36 1 44 -6 3 -9 2 -5 -3 3 -5 -5 -14 -18 -20 -24 -12 -28 -3 -12 24 8 12 2 16
-17 13 -5 -1 -4 4 2 12 9 10 8 18 -1 33 -7 10 -14 37 -15 59 -1 32 0 35 7 15
l7 -25 6 26 c3 20 1 26 -10 25 -9 -2 -19 -11 -23 -22 -4 -10 -8 -13 -8 -6 -1
7 3 22 9 32 7 13 6 19 -5 23 -9 4 -12 1 -8 -9 3 -7 1 -14 -4 -14 -12 0 -11 50
1 70 6 9 0 7 -15 -5 -13 -11 -21 -16 -17 -11 4 5 -1 20 -12 34 -11 13 -17 28
-14 33 3 5 0 9 -7 9 -7 0 -9 10 -7 25 3 13 2 22 -2 20 -4 -2 -16 4 -27 15 -12
10 -25 16 -29 12 -5 -4 -2 1 5 10 11 15 10 17 -8 13 -14 -2 -21 1 -21 11 0 8
-4 12 -10 9 -9 -6 -14 8 -11 28 1 5 -8 6 -19 2 -16 -5 -19 -3 -13 11 4 12 3
15 -5 10 -7 -4 -15 -1 -18 8 -3 9 -15 16 -25 16 -10 0 -19 5 -19 11 0 5 -4 7
-10 4 -5 -3 -10 2 -10 12 0 15 -2 16 -10 3 -8 -13 -10 -12 -11 5 -1 11 -1 24
0 28 1 5 -3 6 -9 2 -6 -3 -8 -10 -6 -14 3 -4 -1 -8 -10 -8 -10 0 -12 7 -8 21
4 16 3 17 -4 7 -12 -17 -46 -6 -39 12 3 8 -1 14 -9 14 -7 0 -11 -4 -8 -9 3 -4
-2 -8 -11 -8 -9 0 -13 5 -10 10 5 9 -16 15 -38 11 -5 -1 -5 9 -2 21 7 23 7 23
-10 3 -15 -19 -16 -19 -11 -1 6 16 4 17 -9 6 -12 -10 -15 -10 -15 3 0 11 -5
14 -17 10 -11 -5 -14 -3 -8 6 6 10 3 11 -13 2 -17 -9 -22 -8 -27 10 -6 17 -9
19 -16 8 -7 -11 -9 -11 -9 -1 0 8 -5 10 -12 6 -8 -5 -9 -2 -5 9 3 10 2 17 -2
17 -5 0 -11 -6 -14 -12 -3 -10 -7 -10 -20 1 -14 11 -15 17 -5 30 10 12 8 12
-8 -2 -19 -16 -23 -16 -34 -2 -7 8 -16 12 -21 10 -4 -3 -17 3 -29 15 -22 22
-35 27 -24 8 4 -7 3 -8 -4 -4 -7 4 -12 15 -12 24 0 15 -2 15 -10 2 -6 -10 -10
-11 -10 -3 0 7 -3 12 -7 12 -22 -4 -35 2 -30 14 3 8 -1 14 -9 14 -7 0 -11 -4
-8 -9 3 -4 -2 -5 -10 -2 -19 7 -21 24 -4 24 6 0 8 3 5 6 -4 4 -13 1 -22 -6
-11 -9 -15 -9 -15 -1 0 7 -4 9 -10 6 -5 -3 -10 -1 -10 4 0 6 -5 10 -12 8 -6
-1 -16 7 -22 19 -6 12 -19 20 -29 18 -13 -2 -17 2 -13 13 5 13 4 14 -8 4 -11
-10 -17 -8 -28 8 -8 12 -18 18 -21 14 -4 -3 -7 -1 -7 6 0 8 -6 11 -16 7 -12
-5 -14 -1 -8 16 6 19 4 21 -7 11 -11 -9 -20 -6 -41 12 -28 24 -38 43 -15 28 6
-4 17 -8 22 -8 6 0 10 -5 10 -12 0 -6 2 -14 6 -17 3 -3 5 5 5 18 0 17 -5 23
-17 21 -10 -2 -23 3 -29 10 -9 11 -17 12 -31 4 -11 -5 -19 -6 -18 -2 3 20 -2
33 -14 33 -21 0 -45 35 -36 53 6 10 5 18 -1 22 -6 4 -9 2 -8 -3 3 -10 -1 -12
-28 -12 -12 0 -14 3 -6 13 8 9 8 17 0 27 -8 12 -9 12 -4 -2 3 -10 1 -18 -4
-18 -6 0 -10 5 -10 11 0 6 -6 9 -14 6 -7 -3 -13 0 -12 6 0 7 -1 12 -4 12 -3 0
-13 7 -22 15 -12 12 -13 18 -4 30 10 13 9 13 -8 0 -16 -13 -20 -12 -30 1 -6 9
-17 14 -23 12 -7 -3 -16 2 -19 11 -3 9 -15 16 -26 16 -10 0 -17 4 -14 9 4 5
-3 7 -14 4 -13 -4 -20 0 -20 9 0 8 -7 15 -15 15 -12 0 -12 -3 -3 -16 9 -12 7
-11 -8 2 -11 9 -24 14 -27 10 -4 -3 -7 -2 -7 4 0 6 -11 9 -25 8 -14 -2 -27 1
-31 6 -3 5 -10 9 -15 9 -6 0 -7 -6 -3 -12 5 -9 3 -9 -9 1 -9 7 -14 18 -10 24
3 6 1 7 -6 3 -6 -4 -9 -12 -6 -17 4 -5 1 -9 -4 -9 -6 0 -11 5 -11 11 0 5 -4 7
-10 4 -5 -3 -10 -2 -10 4 0 10 -19 9 -37 -2 -8 -5 -13 -3 -13 4 0 8 -3 9 -13
0 -8 -6 -17 -8 -21 -4 -12 12 -60 11 -75 -1 -12 -9 -13 -8 -7 3 6 9 5 12 -5 9
-8 -3 -24 -1 -37 3 -13 5 -21 5 -18 0z m1875 -984 c0 -9 -2 -8 -6 1 -2 6 -10
9 -15 6 -7 -4 -8 -2 -4 5 9 13 26 5 25 -12z m176 -357 c-3 -5 -11 -10 -16 -10
-6 0 -7 5 -4 10 3 6 11 10 16 10 6 0 7 -4 4 -10z m5 -164 c-7 -7 -13 -7 -20 0
-6 6 -3 10 10 10 13 0 16 -4 10 -10z m-82 -371 c-5 -12 -17 -22 -25 -22 -13 0
-13 2 2 13 9 7 15 17 11 22 -3 5 1 9 8 9 11 0 12 -6 4 -22z m-3528 -115 c0 -5
-2 -10 -4 -10 -3 0 -8 5 -11 10 -3 6 -1 10 4 10 6 0 11 -4 11 -10z m3420 -16
c0 -8 -19 -13 -24 -6 -3 5 1 9 9 9 8 0 15 -2 15 -3z m-136 -111 c4 -10 4 -14
0 -10 -4 4 -13 2 -20 -4 -8 -7 -14 -6 -20 2 -4 7 -3 9 3 6 6 -4 13 0 17 8 7
19 12 19 20 -2z m-3104 -34 c0 -5 5 -8 11 -6 6 1 14 -4 16 -10 8 -21 -12 -15
-38 13 -17 18 -19 23 -6 18 9 -3 17 -10 17 -15z m1243 -4 c5 -11 -10 -13 -33
-5 -3 1 -9 2 -13 1 -5 -1 -6 2 -4 7 9 13 45 11 50 -3z m217 0 c-7 -9 -15 -13
-19 -10 -3 3 1 10 9 15 21 14 24 12 10 -5z m454 -36 c-3 -5 -10 -7 -15 -3 -5
3 -7 10 -3 15 3 5 10 7 15 3 5 -3 7 -10 3 -15z m147 -24 c11 6 11 5 2 -5 -12
-14 -33 -6 -33 13 0 8 3 7 9 -2 5 -8 14 -10 22 -6z m849 10 c0 -2 -10 -9 -22
-15 -22 -11 -22 -10 -4 4 21 17 26 19 26 11z m-2215 -58 c4 5 5 3 1 -4 -4 -7
-13 -10 -20 -7 -8 3 -17 0 -21 -5 -3 -6 -11 -9 -16 -5 -5 3 -7 10 -3 15 3 5
10 6 16 3 8 -5 9 -1 4 11 -6 18 -6 18 12 2 10 -9 22 -14 27 -10z m1505 9 c-7
-7 -14 -6 -21 1 -9 9 -7 12 9 10 14 -1 18 -5 12 -11z m280 -36 c0 -5 -2 -10
-4 -10 -3 0 -8 5 -11 10 -3 6 -1 10 4 10 6 0 11 -4 11 -10z"/>
<path d="M4833 2343 c4 -3 -1 -16 -10 -27 -18 -21 -18 -21 4 -2 20 16 23 36 6
36 -4 0 -3 -3 0 -7z"/>
<path d="M1208 2238 c2 -10 6 -18 7 -18 1 0 5 8 7 18 3 11 0 19 -7 19 -7 0
-10 -8 -7 -19z"/>
<path d="M521 2187 c-8 -10 -7 -14 2 -14 8 0 14 6 14 14 0 7 -1 13 -2 13 -2 0
-8 -6 -14 -13z"/>
<path d="M4715 2189 c-4 -6 -5 -12 -2 -15 2 -3 7 2 10 11 7 17 1 20 -8 4z"/>
<path d="M573 2155 c0 -8 3 -14 6 -13 18 2 31 -3 31 -13 0 -5 -5 -7 -12 -3 -7
4 -8 3 -4 -5 8 -12 26 -6 26 8 0 5 -10 16 -23 24 -19 12 -24 13 -24 2z"/>
<path d="M1065 2150 c-19 -21 -11 -26 15 -10 8 5 17 5 20 1 3 -5 11 -3 17 5 8
8 9 15 3 19 -6 3 -10 1 -10 -6 0 -8 -3 -9 -13 0 -11 8 -18 6 -32 -9z"/>
<path d="M701 2091 c8 -12 16 -16 20 -9 5 7 8 7 12 -1 3 -7 5 -7 3 1 -2 7 -7
13 -12 13 -5 0 -15 4 -22 9 -11 7 -11 4 -1 -13z"/>
<path d="M875 2079 c-4 -6 -14 -8 -22 -5 -8 3 -11 2 -8 -3 8 -14 42 -9 42 6 0
16 -4 16 -12 2z"/>
<path d="M4499 2076 c0 -1 -2 -12 -3 -25 -3 -22 -2 -23 11 -6 14 21 59 33 47
13 -5 -7 -3 -8 5 -4 18 11 4 21 -30 22 -16 0 -29 0 -30 0z"/>
<path d="M4295 2052 c-3 -3 -5 -10 -5 -16 0 -6 5 -4 10 4 5 8 10 10 10 5 0 -6
9 -11 21 -12 11 -1 19 3 17 9 -4 12 -44 19 -53 10z"/>
<path d="M3486 2037 c3 -10 9 -15 12 -12 3 3 0 11 -7 18 -10 9 -11 8 -5 -6z"/>
<path d="M4380 2034 c0 -8 -4 -13 -9 -9 -5 3 -12 1 -15 -4 -4 -5 2 -8 11 -7
16 3 33 36 19 36 -3 0 -6 -7 -6 -16z"/>
<path d="M3565 1980 c3 -5 8 -10 11 -10 2 0 4 5 4 10 0 6 -5 10 -11 10 -5 0
-7 -4 -4 -10z"/>
<path d="M3770 1887 c0 -2 6 -10 14 -16 11 -9 16 -9 22 1 4 7 4 10 -1 6 -4 -4
-14 -3 -22 3 -7 6 -13 9 -13 6z"/>
<path d="M3955 1811 c-3 -5 -2 -12 3 -15 5 -3 9 1 9 9 0 17 -3 19 -12 6z"/>
<path d="M4420 1526 c0 -2 8 -10 18 -17 15 -13 16 -12 3 4 -13 16 -21 21 -21
13z"/>
<path d="M4460 1456 c0 -2 7 -7 16 -10 8 -3 12 -2 9 4 -6 10 -25 14 -25 6z"/>
<path d="M4478 1421 c8 -5 13 -12 12 -17 -1 -5 3 -10 9 -12 5 -2 9 5 8 15 0
11 -9 20 -21 21 -15 1 -17 -1 -8 -7z"/>
<path d="M4530 1360 c0 -5 5 -10 11 -10 5 0 7 5 4 10 -3 6 -8 10 -11 10 -2 0
-4 -4 -4 -10z"/>
<path d="M4564 1234 c1 -6 7 -19 14 -27 7 -8 11 -21 10 -28 -2 -7 6 -14 17
-15 15 -2 16 -2 2 2 -9 3 -15 10 -11 15 3 6 0 17 -8 26 -11 15 -11 16 5 10 9
-3 17 -2 17 3 0 6 -7 10 -16 10 -8 0 -13 4 -10 8 3 5 -1 9 -8 9 -8 0 -13 -6
-12 -13z"/>
<path d="M4620 996 c0 -3 9 -10 20 -16 11 -6 20 -8 20 -6 0 3 -9 10 -20 16
-11 6 -20 8 -20 6z"/>
<path d="M4627 873 c-11 -11 -8 -21 9 -27 13 -5 14 -4 6 7 -7 8 -9 17 -5 20 3
4 4 7 1 7 -2 0 -8 -3 -11 -7z"/>
<path d="M4586 689 c3 -5 -4 -21 -15 -35 -24 -31 -26 -44 -7 -44 14 0 28 23
30 50 1 8 7 14 14 13 20 -5 13 14 -8 20 -11 3 -17 1 -14 -4z m4 -43 c0 -2 -7
-9 -15 -16 -13 -11 -14 -10 -9 4 5 14 24 23 24 12z"/>
<path d="M917 529 c4 -13 8 -18 11 -10 2 7 -1 18 -6 23 -8 8 -9 4 -5 -13z"/>
<path d="M4474 498 c-17 -19 -17 -21 -1 -15 9 4 17 2 17 -3 0 -6 4 -10 8 -10
5 0 9 7 9 15 0 8 -5 11 -10 8 -6 -4 -8 0 -4 10 9 23 4 21 -19 -5z"/>
<path d="M4450 440 c6 -11 13 -20 16 -20 2 0 0 9 -6 20 -6 11 -13 20 -16 20
-2 0 0 -9 6 -20z"/>
<path d="M4362 391 c-25 -34 -28 -45 -9 -38 6 2 12 10 12 18 0 8 6 14 13 14
13 0 16 8 10 26 -2 6 -13 -3 -26 -20z"/>
<path d="M4410 400 c0 -4 7 -7 15 -6 23 3 26 12 5 13 -11 1 -20 -2 -20 -7z"/>
<path d="M1091 356 c2 -2 15 -9 29 -15 24 -11 24 -11 6 3 -16 13 -49 24 -35
12z"/>
<path d="M2750 291 c0 -6 4 -13 10 -16 6 -3 7 1 4 9 -7 18 -14 21 -14 7z"/>
<path d="M2820 290 c-8 -5 -12 -12 -9 -15 4 -3 12 1 19 10 14 17 11 19 -10 5z"/>
<path d="M2859 295 c0 0 -2 -8 -4 -18 -3 -14 0 -16 9 -8 7 6 15 8 18 5 3 -2 8
1 11 8 3 9 -3 14 -14 14 -11 0 -19 0 -20 -1z"/>
<path d="M2313 265 c0 -8 4 -12 9 -9 4 3 8 9 8 15 0 5 -4 9 -8 9 -5 0 -9 -7
-9 -15z"/>
<path d="M2186 255 c-11 -8 -16 -18 -12 -22 4 -4 11 -1 15 6 5 7 14 11 20 7 7
-5 9 -1 5 8 -3 9 -7 16 -8 16 0 0 -10 -7 -20 -15z"/>
<path d="M2375 260 c3 -5 8 -10 11 -10 2 0 4 5 4 10 0 6 -5 10 -11 10 -5 0 -7
-4 -4 -10z"/>
<path d="M2930 260 c0 -5 5 -10 11 -10 5 0 7 5 4 10 -3 6 -8 10 -11 10 -2 0
-4 -4 -4 -10z"/>
<path d="M3028 252 c4 -11 1 -13 -8 -7 -9 5 -11 4 -6 -3 10 -16 14 -15 25 6 7
14 6 19 -4 19 -7 0 -11 -7 -7 -15z"/>
<path d="M4125 249 c-4 -6 -5 -13 -2 -16 7 -7 27 6 27 18 0 12 -17 12 -25 -2z"/>
<path d="M2022 221 c-7 -4 -8 -12 -2 -21 8 -13 10 -12 10 3 0 9 5 17 11 17 5
0 7 -4 4 -10 -3 -6 1 -7 9 -4 9 3 16 9 16 13 0 9 -34 11 -48 2z"/>
<path d="M1959 187 c-9 -19 -8 -20 3 -6 7 9 21 15 31 13 11 -1 16 0 13 4 -15
14 -37 9 -47 -11z"/>
<path d="M3270 200 c0 -5 5 -10 11 -10 5 0 7 5 4 10 -3 6 -8 10 -11 10 -2 0
-4 -4 -4 -10z"/>
<path d="M1357 165 c3 -8 9 -12 14 -9 12 7 11 11 -5 17 -10 4 -13 1 -9 -8z"/>
<path d="M1413 165 c-3 -9 -3 -19 1 -22 10 -11 37 -12 30 -2 -3 5 -10 7 -15 4
-5 -4 -9 1 -9 10 0 10 5 13 12 9 7 -4 8 -3 4 4 -10 16 -15 15 -23 -3z"/>
<path d="M1701 162 c-7 -13 -16 -20 -22 -17 -5 4 -9 1 -9 -4 0 -11 35 -10 46
1 3 4 12 4 20 1 8 -3 14 1 14 8 0 7 -3 9 -7 6 -3 -4 -12 1 -18 10 -11 15 -13
15 -24 -5z"/>
<path d="M3470 160 c6 -11 15 -20 20 -20 6 0 2 9 -7 20 -10 11 -19 20 -21 20
-1 0 2 -9 8 -20z"/>
<path d="M3495 170 c-2 -4 3 -7 13 -6 9 0 18 -3 19 -9 0 -5 -3 -9 -9 -7 -5 1
-7 -2 -3 -7 8 -14 35 -2 35 15 0 8 -3 14 -7 15 -5 0 -16 2 -25 4 -10 2 -20 0
-23 -5z"/>
<path d="M1766 161 c-3 -5 1 -14 9 -21 10 -9 15 -9 15 -1 0 6 -5 11 -11 11 -5
0 -7 5 -4 10 3 6 4 10 1 10 -3 0 -7 -4 -10 -9z"/>
<path d="M3587 163 c-3 -5 -2 -15 2 -22 7 -10 10 -10 16 -1 4 6 3 16 -3 22 -5
5 -12 6 -15 1z"/>
<path d="M3796 162 c-2 -4 -1 -14 5 -22 7 -12 9 -12 9 -1 0 11 3 11 18 0 14
-11 13 -10 -2 9 -21 25 -23 25 -30 14z"/>
<path d="M1613 132 c1 -14 5 -18 11 -12 7 7 6 14 -1 21 -9 9 -12 7 -10 -9z"/>
<path d="M1649 145 c-1 -3 -2 -8 -3 -12 -1 -5 -5 -15 -10 -23 -7 -12 -6 -13 4
-3 13 12 23 43 14 43 -2 0 -5 -2 -5 -5z"/>
<path d="M1540 130 c-8 -5 -12 -12 -9 -15 4 -3 12 1 19 10 14 17 11 19 -10 5z"/>
</g>
</svg>
